<mxfile host="app.diagrams.net" modified="2022-08-07T16:24:47.326Z" agent="5.0 (Windows NT 10.0; Win64; x64) AppleWebKit/537.36 (KHTML, like Gecko) Chrome/104.0.0.0 Safari/537.36" etag="lZUEOZ9IRi6egLGW6nzP" version="20.2.2" type="github">
  <diagram id="JnQ2pK3HgWxiNNboWXtN" name="Page-1">
    <mxGraphModel dx="3412" dy="1444" grid="0" gridSize="10" guides="1" tooltips="1" connect="1" arrows="1" fold="1" page="1" pageScale="1" pageWidth="827" pageHeight="1169" math="0" shadow="0">
      <root>
        <mxCell id="0" />
        <mxCell id="1" parent="0" />
        <mxCell id="UleaZShrQOYpo76QVXWy-228" style="edgeStyle=orthogonalEdgeStyle;rounded=0;orthogonalLoop=1;jettySize=auto;html=1;startArrow=none;startFill=0;endArrow=none;endFill=0;startSize=5;endSize=5;strokeColor=#CC6600;" edge="1" parent="1" source="UleaZShrQOYpo76QVXWy-231" target="UleaZShrQOYpo76QVXWy-440">
          <mxGeometry relative="1" as="geometry">
            <mxPoint x="-33" y="1413" as="targetPoint" />
            <Array as="points">
              <mxPoint x="-89" y="539" />
            </Array>
          </mxGeometry>
        </mxCell>
        <mxCell id="UleaZShrQOYpo76QVXWy-229" value="1" style="edgeLabel;html=1;align=center;verticalAlign=middle;resizable=0;points=[];" vertex="1" connectable="0" parent="UleaZShrQOYpo76QVXWy-228">
          <mxGeometry x="-0.9807" relative="1" as="geometry">
            <mxPoint as="offset" />
          </mxGeometry>
        </mxCell>
        <mxCell id="UleaZShrQOYpo76QVXWy-230" value="*" style="edgeLabel;html=1;align=center;verticalAlign=middle;resizable=0;points=[];rotation=90;" vertex="1" connectable="0" parent="UleaZShrQOYpo76QVXWy-228">
          <mxGeometry x="0.9869" y="-2" relative="1" as="geometry">
            <mxPoint y="-3" as="offset" />
          </mxGeometry>
        </mxCell>
        <mxCell id="UleaZShrQOYpo76QVXWy-231" value="&lt;b&gt;ActiviteGenerique&lt;/b&gt;" style="swimlane;fontStyle=0;align=center;verticalAlign=middle;childLayout=stackLayout;horizontal=1;startSize=29;horizontalStack=0;resizeParent=1;resizeParentMax=0;resizeLast=0;collapsible=0;marginBottom=0;html=1;fontSize=12;labelPosition=center;verticalLabelPosition=middle;container=0;strokeColor=#CC6600;swimlaneLine=1;rounded=0;shadow=0;glass=0;sketch=0;perimeterSpacing=0;" vertex="1" parent="1">
          <mxGeometry x="238" y="371" width="173" height="291" as="geometry" />
        </mxCell>
        <mxCell id="UleaZShrQOYpo76QVXWy-232" value="- id: UUID" style="text;strokeColor=none;fillColor=none;align=left;verticalAlign=top;spacingLeft=4;spacingRight=4;overflow=hidden;rotatable=0;points=[[0,0.5],[1,0.5]];portConstraint=eastwest;container=0;fontStyle=0" vertex="1" parent="UleaZShrQOYpo76QVXWy-231">
          <mxGeometry y="29" width="173" height="26" as="geometry" />
        </mxCell>
        <mxCell id="UleaZShrQOYpo76QVXWy-233" value="- code : String" style="text;strokeColor=none;fillColor=none;align=left;verticalAlign=top;spacingLeft=4;spacingRight=4;overflow=hidden;rotatable=0;points=[[0,0.5],[1,0.5]];portConstraint=eastwest;container=0;fontStyle=0" vertex="1" parent="UleaZShrQOYpo76QVXWy-231">
          <mxGeometry y="55" width="173" height="26" as="geometry" />
        </mxCell>
        <mxCell id="UleaZShrQOYpo76QVXWy-234" value="- sommaire: String" style="text;strokeColor=none;fillColor=none;align=left;verticalAlign=top;spacingLeft=4;spacingRight=4;overflow=hidden;rotatable=0;points=[[0,0.5],[1,0.5]];portConstraint=eastwest;container=0;fontStyle=0" vertex="1" parent="UleaZShrQOYpo76QVXWy-231">
          <mxGeometry y="81" width="173" height="26" as="geometry" />
        </mxCell>
        <mxCell id="UleaZShrQOYpo76QVXWy-235" value="- description: String" style="text;strokeColor=none;fillColor=none;align=left;verticalAlign=top;spacingLeft=4;spacingRight=4;overflow=hidden;rotatable=0;points=[[0,0.5],[1,0.5]];portConstraint=eastwest;container=0;fontStyle=0" vertex="1" parent="UleaZShrQOYpo76QVXWy-231">
          <mxGeometry y="107" width="173" height="26" as="geometry" />
        </mxCell>
        <mxCell id="UleaZShrQOYpo76QVXWy-236" value="- dateDebutPrevue: LocalDate" style="text;strokeColor=none;fillColor=none;align=left;verticalAlign=top;spacingLeft=4;spacingRight=4;overflow=hidden;rotatable=0;points=[[0,0.5],[1,0.5]];portConstraint=eastwest;container=0;fontStyle=0" vertex="1" parent="UleaZShrQOYpo76QVXWy-231">
          <mxGeometry y="133" width="173" height="26" as="geometry" />
        </mxCell>
        <mxCell id="UleaZShrQOYpo76QVXWy-237" value="- dateFinPrevue: LocalDate" style="text;strokeColor=none;fillColor=none;align=left;verticalAlign=top;spacingLeft=4;spacingRight=4;overflow=hidden;rotatable=0;points=[[0,0.5],[1,0.5]];portConstraint=eastwest;container=0;fontStyle=0" vertex="1" parent="UleaZShrQOYpo76QVXWy-231">
          <mxGeometry y="159" width="173" height="26" as="geometry" />
        </mxCell>
        <mxCell id="UleaZShrQOYpo76QVXWy-238" value="&lt;span style=&quot;&quot;&gt;- dateDebut: LocalDate&lt;/span&gt;" style="text;whiteSpace=wrap;html=1;" vertex="1" parent="UleaZShrQOYpo76QVXWy-231">
          <mxGeometry y="185" width="173" height="28" as="geometry" />
        </mxCell>
        <mxCell id="UleaZShrQOYpo76QVXWy-239" value="- dateFin: LocalDate" style="text;strokeColor=none;fillColor=none;align=left;verticalAlign=top;spacingLeft=4;spacingRight=4;overflow=hidden;rotatable=0;points=[[0,0.5],[1,0.5]];portConstraint=eastwest;container=0;fontStyle=0" vertex="1" parent="UleaZShrQOYpo76QVXWy-231">
          <mxGeometry y="213" width="173" height="26" as="geometry" />
        </mxCell>
        <mxCell id="UleaZShrQOYpo76QVXWy-240" value="- budget: Double" style="text;strokeColor=none;fillColor=none;align=left;verticalAlign=top;spacingLeft=4;spacingRight=4;overflow=hidden;rotatable=0;points=[[0,0.5],[1,0.5]];portConstraint=eastwest;container=0;fontStyle=0" vertex="1" parent="UleaZShrQOYpo76QVXWy-231">
          <mxGeometry y="239" width="173" height="26" as="geometry" />
        </mxCell>
        <mxCell id="UleaZShrQOYpo76QVXWy-241" value="- coutMoyen: Double" style="text;strokeColor=none;fillColor=none;align=left;verticalAlign=top;spacingLeft=4;spacingRight=4;overflow=hidden;rotatable=0;points=[[0,0.5],[1,0.5]];portConstraint=eastwest;container=0;fontStyle=0" vertex="1" parent="UleaZShrQOYpo76QVXWy-231">
          <mxGeometry y="265" width="173" height="26" as="geometry" />
        </mxCell>
        <mxCell id="UleaZShrQOYpo76QVXWy-242" value="&lt;b&gt;&amp;lt;&amp;lt;enum&amp;gt;&amp;gt;&lt;/b&gt;&lt;br&gt;&lt;div style=&quot;text-align: left&quot;&gt;&lt;b&gt;DeliveryStatus&lt;/b&gt;&lt;br&gt;&lt;/div&gt;" style="swimlane;fontStyle=0;align=center;verticalAlign=middle;childLayout=stackLayout;horizontal=1;startSize=29;horizontalStack=0;resizeParent=1;resizeParentMax=0;resizeLast=0;collapsible=0;marginBottom=0;html=1;fontSize=12;labelPosition=center;verticalLabelPosition=middle;container=0;swimlaneLine=1;rounded=0;sketch=0;glass=0;strokeColor=#CC6600;" vertex="1" parent="1">
          <mxGeometry x="474" y="453" width="150" height="159" as="geometry" />
        </mxCell>
        <mxCell id="UleaZShrQOYpo76QVXWy-243" value="PREVU" style="text;strokeColor=none;fillColor=none;align=left;verticalAlign=top;spacingLeft=4;spacingRight=4;overflow=hidden;rotatable=0;points=[[0,0.5],[1,0.5]];portConstraint=eastwest;container=0;fontStyle=0" vertex="1" parent="UleaZShrQOYpo76QVXWy-242">
          <mxGeometry y="29" width="150" height="26" as="geometry" />
        </mxCell>
        <mxCell id="UleaZShrQOYpo76QVXWy-244" value="EN_COURS" style="text;strokeColor=none;fillColor=none;align=left;verticalAlign=top;spacingLeft=4;spacingRight=4;overflow=hidden;rotatable=0;points=[[0,0.5],[1,0.5]];portConstraint=eastwest;container=0;fontStyle=0" vertex="1" parent="UleaZShrQOYpo76QVXWy-242">
          <mxGeometry y="55" width="150" height="26" as="geometry" />
        </mxCell>
        <mxCell id="UleaZShrQOYpo76QVXWy-245" value="LIVRE" style="text;strokeColor=none;fillColor=none;align=left;verticalAlign=top;spacingLeft=4;spacingRight=4;overflow=hidden;rotatable=0;points=[[0,0.5],[1,0.5]];portConstraint=eastwest;container=0;fontStyle=0" vertex="1" parent="UleaZShrQOYpo76QVXWy-242">
          <mxGeometry y="81" width="150" height="26" as="geometry" />
        </mxCell>
        <mxCell id="UleaZShrQOYpo76QVXWy-246" value="BLOQUEE" style="text;strokeColor=none;fillColor=none;align=left;verticalAlign=top;spacingLeft=4;spacingRight=4;overflow=hidden;rotatable=0;points=[[0,0.5],[1,0.5]];portConstraint=eastwest;container=0;fontStyle=0" vertex="1" parent="UleaZShrQOYpo76QVXWy-242">
          <mxGeometry y="107" width="150" height="26" as="geometry" />
        </mxCell>
        <mxCell id="UleaZShrQOYpo76QVXWy-247" value="ANNULE" style="text;strokeColor=none;fillColor=none;align=left;verticalAlign=top;spacingLeft=4;spacingRight=4;overflow=hidden;rotatable=0;points=[[0,0.5],[1,0.5]];portConstraint=eastwest;container=0;fontStyle=0" vertex="1" parent="UleaZShrQOYpo76QVXWy-242">
          <mxGeometry y="133" width="150" height="26" as="geometry" />
        </mxCell>
        <mxCell id="UleaZShrQOYpo76QVXWy-248" style="edgeStyle=orthogonalEdgeStyle;rounded=0;orthogonalLoop=1;jettySize=auto;html=1;endSize=5;startSize=5;dashed=1;strokeColor=#CC6600;" edge="1" parent="1" source="UleaZShrQOYpo76QVXWy-231" target="UleaZShrQOYpo76QVXWy-242">
          <mxGeometry relative="1" as="geometry">
            <Array as="points">
              <mxPoint x="545" y="458" />
              <mxPoint x="545" y="458" />
            </Array>
          </mxGeometry>
        </mxCell>
        <mxCell id="UleaZShrQOYpo76QVXWy-249" value="&lt;b&gt;&amp;lt;&amp;lt;enum&amp;gt;&amp;gt;&lt;/b&gt;&lt;br&gt;&lt;div style=&quot;text-align: left&quot;&gt;&lt;b&gt;PhaseType&lt;/b&gt;&lt;br&gt;&lt;/div&gt;" style="swimlane;fontStyle=0;align=center;verticalAlign=middle;childLayout=stackLayout;horizontal=1;startSize=29;horizontalStack=0;resizeParent=1;resizeParentMax=0;resizeLast=0;collapsible=0;marginBottom=0;html=1;fontSize=12;labelPosition=center;verticalLabelPosition=middle;container=0;swimlaneLine=1;rounded=0;sketch=0;glass=0;strokeColor=#CC6600;" vertex="1" parent="1">
          <mxGeometry x="116" y="1479" width="150" height="133" as="geometry" />
        </mxCell>
        <mxCell id="UleaZShrQOYpo76QVXWy-250" value="SCOPING" style="text;strokeColor=none;fillColor=none;align=left;verticalAlign=top;spacingLeft=4;spacingRight=4;overflow=hidden;rotatable=0;points=[[0,0.5],[1,0.5]];portConstraint=eastwest;container=0;fontStyle=0" vertex="1" parent="UleaZShrQOYpo76QVXWy-249">
          <mxGeometry y="29" width="150" height="26" as="geometry" />
        </mxCell>
        <mxCell id="UleaZShrQOYpo76QVXWy-251" value="DEVELOPMENT" style="text;strokeColor=none;fillColor=none;align=left;verticalAlign=top;spacingLeft=4;spacingRight=4;overflow=hidden;rotatable=0;points=[[0,0.5],[1,0.5]];portConstraint=eastwest;container=0;fontStyle=0" vertex="1" parent="UleaZShrQOYpo76QVXWy-249">
          <mxGeometry y="55" width="150" height="26" as="geometry" />
        </mxCell>
        <mxCell id="UleaZShrQOYpo76QVXWy-252" value="DEPLOY" style="text;strokeColor=none;fillColor=none;align=left;verticalAlign=top;spacingLeft=4;spacingRight=4;overflow=hidden;rotatable=0;points=[[0,0.5],[1,0.5]];portConstraint=eastwest;container=0;fontStyle=0" vertex="1" parent="UleaZShrQOYpo76QVXWy-249">
          <mxGeometry y="81" width="150" height="26" as="geometry" />
        </mxCell>
        <mxCell id="UleaZShrQOYpo76QVXWy-253" value="WARRANTY" style="text;strokeColor=none;fillColor=none;align=left;verticalAlign=top;spacingLeft=4;spacingRight=4;overflow=hidden;rotatable=0;points=[[0,0.5],[1,0.5]];portConstraint=eastwest;container=0;fontStyle=0" vertex="1" parent="UleaZShrQOYpo76QVXWy-249">
          <mxGeometry y="107" width="150" height="26" as="geometry" />
        </mxCell>
        <mxCell id="UleaZShrQOYpo76QVXWy-254" style="edgeStyle=orthogonalEdgeStyle;rounded=0;orthogonalLoop=1;jettySize=auto;html=1;startSize=5;endSize=5;endArrow=block;endFill=0;strokeColor=#CC6600;" edge="1" parent="1" source="UleaZShrQOYpo76QVXWy-255" target="UleaZShrQOYpo76QVXWy-231">
          <mxGeometry relative="1" as="geometry">
            <Array as="points">
              <mxPoint x="170" y="698" />
              <mxPoint x="325" y="698" />
            </Array>
            <mxPoint x="216.0072992700732" y="766" as="sourcePoint" />
            <mxPoint x="413.0000000000002" y="661.9999999999999" as="targetPoint" />
          </mxGeometry>
        </mxCell>
        <mxCell id="UleaZShrQOYpo76QVXWy-255" value="&lt;b style=&quot;text-align: left;&quot;&gt;AutreAcivite&lt;/b&gt;" style="swimlane;fontStyle=0;align=center;verticalAlign=middle;childLayout=stackLayout;horizontal=1;startSize=29;horizontalStack=0;resizeParent=1;resizeParentMax=0;resizeLast=0;collapsible=0;marginBottom=0;html=1;fontSize=12;labelPosition=center;verticalLabelPosition=middle;container=0;swimlaneLine=1;rounded=0;sketch=0;glass=0;strokeColor=#CC6600;" vertex="1" parent="1">
          <mxGeometry x="57" y="753" width="150" height="55" as="geometry" />
        </mxCell>
        <mxCell id="UleaZShrQOYpo76QVXWy-256" value="- demandeur: UUID" style="text;strokeColor=none;fillColor=none;align=left;verticalAlign=top;spacingLeft=4;spacingRight=4;overflow=hidden;rotatable=0;points=[[0,0.5],[1,0.5]];portConstraint=eastwest;container=0;fontStyle=0" vertex="1" parent="UleaZShrQOYpo76QVXWy-255">
          <mxGeometry y="29" width="150" height="26" as="geometry" />
        </mxCell>
        <mxCell id="UleaZShrQOYpo76QVXWy-257" style="edgeStyle=orthogonalEdgeStyle;rounded=0;orthogonalLoop=1;jettySize=auto;html=1;endArrow=block;endFill=0;startSize=5;endSize=5;strokeColor=#CC6600;" edge="1" parent="1" source="UleaZShrQOYpo76QVXWy-258" target="UleaZShrQOYpo76QVXWy-231">
          <mxGeometry relative="1" as="geometry">
            <Array as="points">
              <mxPoint x="508" y="698" />
              <mxPoint x="325" y="698" />
            </Array>
          </mxGeometry>
        </mxCell>
        <mxCell id="UleaZShrQOYpo76QVXWy-258" value="DeliveryActivity" style="swimlane;fontStyle=1;align=center;verticalAlign=middle;childLayout=stackLayout;horizontal=1;startSize=29;horizontalStack=0;resizeParent=1;resizeParentMax=0;resizeLast=0;collapsible=0;marginBottom=0;html=1;fontSize=12;labelPosition=center;verticalLabelPosition=middle;container=0;swimlaneLine=1;rounded=0;sketch=0;glass=0;strokeColor=#CC6600;" vertex="1" parent="1">
          <mxGeometry x="432" y="753" width="150" height="159" as="geometry" />
        </mxCell>
        <mxCell id="UleaZShrQOYpo76QVXWy-259" value="- internalOrder: UUID" style="text;strokeColor=none;fillColor=none;align=left;verticalAlign=top;spacingLeft=4;spacingRight=4;overflow=hidden;rotatable=0;points=[[0,0.5],[1,0.5]];portConstraint=eastwest;container=0;fontStyle=0" vertex="1" parent="UleaZShrQOYpo76QVXWy-258">
          <mxGeometry y="29" width="150" height="26" as="geometry" />
        </mxCell>
        <mxCell id="UleaZShrQOYpo76QVXWy-260" value="- clientOrder: UUID" style="text;strokeColor=none;fillColor=none;align=left;verticalAlign=top;spacingLeft=4;spacingRight=4;overflow=hidden;rotatable=0;points=[[0,0.5],[1,0.5]];portConstraint=eastwest;container=0;fontStyle=0" vertex="1" parent="UleaZShrQOYpo76QVXWy-258">
          <mxGeometry y="55" width="150" height="26" as="geometry" />
        </mxCell>
        <mxCell id="UleaZShrQOYpo76QVXWy-261" value="- lead: UUID" style="text;strokeColor=none;fillColor=none;align=left;verticalAlign=top;spacingLeft=4;spacingRight=4;overflow=hidden;rotatable=0;points=[[0,0.5],[1,0.5]];portConstraint=eastwest;container=0;fontStyle=0" vertex="1" parent="UleaZShrQOYpo76QVXWy-258">
          <mxGeometry y="81" width="150" height="26" as="geometry" />
        </mxCell>
        <mxCell id="UleaZShrQOYpo76QVXWy-262" value="- averageBudget: Float" style="text;strokeColor=none;fillColor=none;align=left;verticalAlign=top;spacingLeft=4;spacingRight=4;overflow=hidden;rotatable=0;points=[[0,0.5],[1,0.5]];portConstraint=eastwest;container=0;fontStyle=0" vertex="1" parent="UleaZShrQOYpo76QVXWy-258">
          <mxGeometry y="107" width="150" height="26" as="geometry" />
        </mxCell>
        <mxCell id="UleaZShrQOYpo76QVXWy-263" value="- averageProfitMargin: Float" style="text;strokeColor=none;fillColor=none;align=left;verticalAlign=top;spacingLeft=4;spacingRight=4;overflow=hidden;rotatable=0;points=[[0,0.5],[1,0.5]];portConstraint=eastwest;container=0;fontStyle=0" vertex="1" parent="UleaZShrQOYpo76QVXWy-258">
          <mxGeometry y="133" width="150" height="26" as="geometry" />
        </mxCell>
        <mxCell id="UleaZShrQOYpo76QVXWy-264" style="rounded=0;orthogonalLoop=1;jettySize=auto;html=1;endArrow=block;endFill=0;startSize=5;endSize=5;strokeColor=#CC6600;" edge="1" parent="1">
          <mxGeometry relative="1" as="geometry">
            <mxPoint x="324" y="753" as="sourcePoint" />
            <mxPoint x="325" y="662" as="targetPoint" />
          </mxGeometry>
        </mxCell>
        <mxCell id="UleaZShrQOYpo76QVXWy-265" value="&lt;b&gt;AvantVente&lt;/b&gt;&lt;b&gt;Activite&lt;/b&gt;" style="swimlane;fontStyle=1;align=center;verticalAlign=middle;childLayout=stackLayout;horizontal=1;startSize=29;horizontalStack=0;resizeParent=1;resizeParentMax=0;resizeLast=0;collapsible=0;marginBottom=0;html=1;fontSize=12;labelPosition=center;verticalLabelPosition=middle;container=0;swimlaneLine=1;rounded=0;sketch=0;glass=0;strokeColor=#CC6600;" vertex="1" parent="1">
          <mxGeometry x="235" y="753" width="158" height="107" as="geometry" />
        </mxCell>
        <mxCell id="UleaZShrQOYpo76QVXWy-266" value="- internalOrder: UUID" style="text;strokeColor=none;fillColor=none;align=left;verticalAlign=top;spacingLeft=4;spacingRight=4;overflow=hidden;rotatable=0;points=[[0,0.5],[1,0.5]];portConstraint=eastwest;container=0;fontStyle=0" vertex="1" parent="UleaZShrQOYpo76QVXWy-265">
          <mxGeometry y="29" width="158" height="26" as="geometry" />
        </mxCell>
        <mxCell id="UleaZShrQOYpo76QVXWy-267" value="- crmDealId: UUID" style="text;strokeColor=none;fillColor=none;align=left;verticalAlign=top;spacingLeft=4;spacingRight=4;overflow=hidden;rotatable=0;points=[[0,0.5],[1,0.5]];portConstraint=eastwest;container=0;fontStyle=0" vertex="1" parent="UleaZShrQOYpo76QVXWy-265">
          <mxGeometry y="55" width="158" height="26" as="geometry" />
        </mxCell>
        <mxCell id="UleaZShrQOYpo76QVXWy-268" value="- demandeur: UUID" style="text;strokeColor=none;fillColor=none;align=left;verticalAlign=top;spacingLeft=4;spacingRight=4;overflow=hidden;rotatable=0;points=[[0,0.5],[1,0.5]];portConstraint=eastwest;container=0;fontStyle=0" vertex="1" parent="UleaZShrQOYpo76QVXWy-265">
          <mxGeometry y="81" width="158" height="26" as="geometry" />
        </mxCell>
        <mxCell id="UleaZShrQOYpo76QVXWy-270" style="edgeStyle=orthogonalEdgeStyle;rounded=0;orthogonalLoop=1;jettySize=auto;html=1;endArrow=block;endFill=0;startSize=5;endSize=5;strokeColor=#CC6600;" edge="1" parent="1" source="UleaZShrQOYpo76QVXWy-274" target="UleaZShrQOYpo76QVXWy-258">
          <mxGeometry relative="1" as="geometry">
            <Array as="points">
              <mxPoint x="253" y="971" />
              <mxPoint x="489" y="971" />
            </Array>
            <mxPoint x="253" y="1003" as="sourcePoint" />
            <mxPoint x="489" y="912.0000000000005" as="targetPoint" />
          </mxGeometry>
        </mxCell>
        <mxCell id="UleaZShrQOYpo76QVXWy-271" value="" style="edgeStyle=orthogonalEdgeStyle;rounded=0;orthogonalLoop=1;jettySize=auto;html=1;endArrow=none;endFill=0;startSize=5;endSize=5;strokeColor=#CC6600;" edge="1" parent="1" source="UleaZShrQOYpo76QVXWy-279" target="UleaZShrQOYpo76QVXWy-298">
          <mxGeometry relative="1" as="geometry">
            <mxPoint x="-25" y="1125" as="targetPoint" />
            <Array as="points">
              <mxPoint x="76" y="1352" />
            </Array>
          </mxGeometry>
        </mxCell>
        <mxCell id="UleaZShrQOYpo76QVXWy-272" value="1" style="edgeLabel;html=1;align=center;verticalAlign=middle;resizable=0;points=[];" vertex="1" connectable="0" parent="UleaZShrQOYpo76QVXWy-271">
          <mxGeometry x="-0.9444" y="-1" relative="1" as="geometry">
            <mxPoint y="-5" as="offset" />
          </mxGeometry>
        </mxCell>
        <mxCell id="UleaZShrQOYpo76QVXWy-273" value="*" style="edgeLabel;html=1;align=center;verticalAlign=middle;resizable=0;points=[];" vertex="1" connectable="0" parent="UleaZShrQOYpo76QVXWy-271">
          <mxGeometry x="0.9306" relative="1" as="geometry">
            <mxPoint x="6" y="1" as="offset" />
          </mxGeometry>
        </mxCell>
        <mxCell id="UleaZShrQOYpo76QVXWy-274" value="&lt;b&gt;PrixFixe&lt;/b&gt;&lt;b&gt;Activite&lt;/b&gt;" style="swimlane;fontStyle=1;align=center;verticalAlign=middle;childLayout=stackLayout;horizontal=1;startSize=29;horizontalStack=0;resizeParent=1;resizeParentMax=0;resizeLast=0;collapsible=0;marginBottom=0;html=1;fontSize=12;labelPosition=center;verticalLabelPosition=middle;container=0;swimlaneLine=1;rounded=0;sketch=0;glass=0;strokeColor=#CC6600;" vertex="1" parent="1">
          <mxGeometry x="184" y="1003" width="150" height="55" as="geometry" />
        </mxCell>
        <mxCell id="UleaZShrQOYpo76QVXWy-275" style="edgeStyle=orthogonalEdgeStyle;rounded=0;orthogonalLoop=1;jettySize=auto;html=1;endArrow=block;endFill=0;startSize=5;endSize=5;strokeColor=#CC6600;" edge="1" parent="1" source="UleaZShrQOYpo76QVXWy-279" target="UleaZShrQOYpo76QVXWy-258">
          <mxGeometry relative="1" as="geometry">
            <Array as="points">
              <mxPoint x="73" y="971" />
              <mxPoint x="489" y="971" />
            </Array>
            <mxPoint x="73" y="1003" as="sourcePoint" />
            <mxPoint x="489" y="912.0000000000005" as="targetPoint" />
          </mxGeometry>
        </mxCell>
        <mxCell id="UleaZShrQOYpo76QVXWy-276" style="edgeStyle=orthogonalEdgeStyle;rounded=0;orthogonalLoop=1;jettySize=auto;html=1;endArrow=none;endFill=0;startSize=5;endSize=5;strokeColor=#CC6600;" edge="1" parent="1" source="UleaZShrQOYpo76QVXWy-274" target="UleaZShrQOYpo76QVXWy-298">
          <mxGeometry relative="1" as="geometry">
            <Array as="points">
              <mxPoint x="259" y="1279" />
            </Array>
          </mxGeometry>
        </mxCell>
        <mxCell id="UleaZShrQOYpo76QVXWy-277" value="*" style="edgeLabel;html=1;align=center;verticalAlign=middle;resizable=0;points=[];" vertex="1" connectable="0" parent="UleaZShrQOYpo76QVXWy-276">
          <mxGeometry x="0.9275" y="-2" relative="1" as="geometry">
            <mxPoint x="1" as="offset" />
          </mxGeometry>
        </mxCell>
        <mxCell id="UleaZShrQOYpo76QVXWy-278" value="1" style="edgeLabel;html=1;align=center;verticalAlign=middle;resizable=0;points=[];" vertex="1" connectable="0" parent="UleaZShrQOYpo76QVXWy-276">
          <mxGeometry x="-0.9244" y="1" relative="1" as="geometry">
            <mxPoint x="-2" y="-2" as="offset" />
          </mxGeometry>
        </mxCell>
        <mxCell id="UleaZShrQOYpo76QVXWy-279" value="&lt;b&gt;TempsEtMateriel&lt;/b&gt;&lt;b&gt;Activite&lt;/b&gt;" style="swimlane;fontStyle=1;align=center;verticalAlign=middle;childLayout=stackLayout;horizontal=1;startSize=29;horizontalStack=0;resizeParent=1;resizeParentMax=0;resizeLast=0;collapsible=0;marginBottom=0;html=1;fontSize=12;labelPosition=center;verticalLabelPosition=middle;container=0;swimlaneLine=1;rounded=0;sketch=0;glass=0;strokeColor=#CC6600;" vertex="1" parent="1">
          <mxGeometry x="9" y="1003" width="150" height="55" as="geometry" />
        </mxCell>
        <mxCell id="UleaZShrQOYpo76QVXWy-280" style="edgeStyle=orthogonalEdgeStyle;rounded=0;orthogonalLoop=1;jettySize=auto;html=1;endArrow=block;endFill=0;startSize=5;endSize=5;strokeColor=#CC6600;" edge="1" parent="1" source="UleaZShrQOYpo76QVXWy-281">
          <mxGeometry relative="1" as="geometry">
            <Array as="points">
              <mxPoint x="489" y="981" />
              <mxPoint x="489" y="981" />
            </Array>
            <mxPoint x="489" y="1000" as="sourcePoint" />
            <mxPoint x="489" y="912.0000000000005" as="targetPoint" />
          </mxGeometry>
        </mxCell>
        <mxCell id="UleaZShrQOYpo76QVXWy-281" value="Licence&lt;b&gt;Activite&lt;/b&gt;" style="swimlane;fontStyle=1;align=center;verticalAlign=middle;childLayout=stackLayout;horizontal=1;startSize=29;horizontalStack=0;resizeParent=1;resizeParentMax=0;resizeLast=0;collapsible=0;marginBottom=0;html=1;fontSize=12;labelPosition=center;verticalLabelPosition=middle;container=0;swimlaneLine=1;rounded=0;sketch=0;glass=0;strokeColor=#CC6600;" vertex="1" parent="1">
          <mxGeometry x="359" y="1000" width="240" height="211" as="geometry" />
        </mxCell>
        <mxCell id="UleaZShrQOYpo76QVXWy-282" value="- product: UUID" style="text;strokeColor=none;fillColor=none;align=left;verticalAlign=top;spacingLeft=4;spacingRight=4;overflow=hidden;rotatable=0;points=[[0,0.5],[1,0.5]];portConstraint=eastwest;container=0;fontStyle=0" vertex="1" parent="UleaZShrQOYpo76QVXWy-281">
          <mxGeometry y="29" width="240" height="26" as="geometry" />
        </mxCell>
        <mxCell id="UleaZShrQOYpo76QVXWy-283" value="- license: UUID" style="text;strokeColor=none;fillColor=none;align=left;verticalAlign=top;spacingLeft=4;spacingRight=4;overflow=hidden;rotatable=0;points=[[0,0.5],[1,0.5]];portConstraint=eastwest;container=0;fontStyle=0" vertex="1" parent="UleaZShrQOYpo76QVXWy-281">
          <mxGeometry y="55" width="240" height="26" as="geometry" />
        </mxCell>
        <mxCell id="UleaZShrQOYpo76QVXWy-284" value="- quantity: Int" style="text;strokeColor=none;fillColor=none;align=left;verticalAlign=top;spacingLeft=4;spacingRight=4;overflow=hidden;rotatable=0;points=[[0,0.5],[1,0.5]];portConstraint=eastwest;container=0;fontStyle=0" vertex="1" parent="UleaZShrQOYpo76QVXWy-281">
          <mxGeometry y="81" width="240" height="26" as="geometry" />
        </mxCell>
        <mxCell id="UleaZShrQOYpo76QVXWy-285" value="- plannedSubscriptionStartDate: LocalDate" style="text;strokeColor=none;fillColor=none;align=left;verticalAlign=top;spacingLeft=4;spacingRight=4;overflow=hidden;rotatable=0;points=[[0,0.5],[1,0.5]];portConstraint=eastwest;container=0;fontStyle=0" vertex="1" parent="UleaZShrQOYpo76QVXWy-281">
          <mxGeometry y="107" width="240" height="26" as="geometry" />
        </mxCell>
        <mxCell id="UleaZShrQOYpo76QVXWy-286" value="- plannedSubscriptionEndDate: LocalDate" style="text;strokeColor=none;fillColor=none;align=left;verticalAlign=top;spacingLeft=4;spacingRight=4;overflow=hidden;rotatable=0;points=[[0,0.5],[1,0.5]];portConstraint=eastwest;container=0;fontStyle=0" vertex="1" parent="UleaZShrQOYpo76QVXWy-281">
          <mxGeometry y="133" width="240" height="26" as="geometry" />
        </mxCell>
        <mxCell id="UleaZShrQOYpo76QVXWy-287" value="- subscriptionStartDate: LocalDate" style="text;strokeColor=none;fillColor=none;align=left;verticalAlign=top;spacingLeft=4;spacingRight=4;overflow=hidden;rotatable=0;points=[[0,0.5],[1,0.5]];portConstraint=eastwest;container=0;fontStyle=0" vertex="1" parent="UleaZShrQOYpo76QVXWy-281">
          <mxGeometry y="159" width="240" height="26" as="geometry" />
        </mxCell>
        <mxCell id="UleaZShrQOYpo76QVXWy-288" value="- subscriptionEndDate: LocalDate" style="text;strokeColor=none;fillColor=none;align=left;verticalAlign=top;spacingLeft=4;spacingRight=4;overflow=hidden;rotatable=0;points=[[0,0.5],[1,0.5]];portConstraint=eastwest;container=0;fontStyle=0" vertex="1" parent="UleaZShrQOYpo76QVXWy-281">
          <mxGeometry y="185" width="240" height="26" as="geometry" />
        </mxCell>
        <mxCell id="UleaZShrQOYpo76QVXWy-289" style="edgeStyle=orthogonalEdgeStyle;rounded=0;orthogonalLoop=1;jettySize=auto;html=1;endArrow=block;endFill=0;startSize=5;endSize=5;strokeColor=#CC6600;" edge="1" parent="1" source="UleaZShrQOYpo76QVXWy-293" target="UleaZShrQOYpo76QVXWy-258">
          <mxGeometry relative="1" as="geometry">
            <Array as="points">
              <mxPoint x="698" y="971" />
              <mxPoint x="489" y="971" />
            </Array>
            <mxPoint x="698" y="1002" as="sourcePoint" />
            <mxPoint x="489.0079999999998" y="912" as="targetPoint" />
          </mxGeometry>
        </mxCell>
        <mxCell id="UleaZShrQOYpo76QVXWy-290" style="edgeStyle=orthogonalEdgeStyle;rounded=0;orthogonalLoop=1;jettySize=auto;html=1;endArrow=none;endFill=0;startSize=5;endSize=5;strokeColor=#CC6600;" edge="1" parent="1" source="UleaZShrQOYpo76QVXWy-293" target="UleaZShrQOYpo76QVXWy-298">
          <mxGeometry relative="1" as="geometry">
            <Array as="points">
              <mxPoint x="694" y="1308" />
            </Array>
          </mxGeometry>
        </mxCell>
        <mxCell id="UleaZShrQOYpo76QVXWy-291" value="1" style="edgeLabel;html=1;align=center;verticalAlign=middle;resizable=0;points=[];" vertex="1" connectable="0" parent="UleaZShrQOYpo76QVXWy-290">
          <mxGeometry x="-0.9723" y="2" relative="1" as="geometry">
            <mxPoint x="-4" y="6" as="offset" />
          </mxGeometry>
        </mxCell>
        <mxCell id="UleaZShrQOYpo76QVXWy-292" value="*" style="edgeLabel;html=1;align=center;verticalAlign=middle;resizable=0;points=[];" vertex="1" connectable="0" parent="UleaZShrQOYpo76QVXWy-290">
          <mxGeometry x="0.9861" y="-1" relative="1" as="geometry">
            <mxPoint x="3" y="3" as="offset" />
          </mxGeometry>
        </mxCell>
        <mxCell id="UleaZShrQOYpo76QVXWy-293" value="&lt;b&gt;ProgrammeSoutien&lt;/b&gt;&lt;b&gt;Activite&lt;/b&gt;" style="swimlane;fontStyle=1;align=center;verticalAlign=middle;childLayout=stackLayout;horizontal=1;startSize=29;horizontalStack=0;resizeParent=1;resizeParentMax=0;resizeLast=0;collapsible=0;marginBottom=0;html=1;fontSize=12;labelPosition=center;verticalLabelPosition=middle;container=0;swimlaneLine=1;rounded=0;sketch=0;glass=0;strokeColor=#CC6600;" vertex="1" parent="1">
          <mxGeometry x="629" y="1002" width="173" height="133" as="geometry" />
        </mxCell>
        <mxCell id="UleaZShrQOYpo76QVXWy-294" value="- supportProgram: UUID" style="text;strokeColor=none;fillColor=none;align=left;verticalAlign=top;spacingLeft=4;spacingRight=4;overflow=hidden;rotatable=0;points=[[0,0.5],[1,0.5]];portConstraint=eastwest;container=0;fontStyle=0" vertex="1" parent="UleaZShrQOYpo76QVXWy-293">
          <mxGeometry y="29" width="173" height="26" as="geometry" />
        </mxCell>
        <mxCell id="UleaZShrQOYpo76QVXWy-295" value="- supportProgramName: String" style="text;strokeColor=none;fillColor=none;align=left;verticalAlign=top;spacingLeft=4;spacingRight=4;overflow=hidden;rotatable=0;points=[[0,0.5],[1,0.5]];portConstraint=eastwest;container=0;fontStyle=0" vertex="1" parent="UleaZShrQOYpo76QVXWy-293">
          <mxGeometry y="55" width="173" height="26" as="geometry" />
        </mxCell>
        <mxCell id="UleaZShrQOYpo76QVXWy-296" value="- totalHours: Float" style="text;strokeColor=none;fillColor=none;align=left;verticalAlign=top;spacingLeft=4;spacingRight=4;overflow=hidden;rotatable=0;points=[[0,0.5],[1,0.5]];portConstraint=eastwest;container=0;fontStyle=0" vertex="1" parent="UleaZShrQOYpo76QVXWy-293">
          <mxGeometry y="81" width="173" height="26" as="geometry" />
        </mxCell>
        <mxCell id="UleaZShrQOYpo76QVXWy-297" value="- limit: Float" style="text;strokeColor=none;fillColor=none;align=left;verticalAlign=top;spacingLeft=4;spacingRight=4;overflow=hidden;rotatable=0;points=[[0,0.5],[1,0.5]];portConstraint=eastwest;container=0;fontStyle=0" vertex="1" parent="UleaZShrQOYpo76QVXWy-293">
          <mxGeometry y="107" width="173" height="26" as="geometry" />
        </mxCell>
        <mxCell id="UleaZShrQOYpo76QVXWy-298" value="&lt;b&gt;Iteration&lt;/b&gt;" style="swimlane;fontStyle=0;align=center;verticalAlign=middle;childLayout=stackLayout;horizontal=1;startSize=29;horizontalStack=0;resizeParent=1;resizeParentMax=0;resizeLast=0;collapsible=0;marginBottom=0;html=1;fontSize=12;labelPosition=center;verticalLabelPosition=middle;container=0;strokeColor=#CC6600;swimlaneLine=1;rounded=0;shadow=0;glass=0;sketch=0;perimeterSpacing=0;" vertex="1" parent="1">
          <mxGeometry x="317" y="1236" width="173" height="367" as="geometry" />
        </mxCell>
        <mxCell id="UleaZShrQOYpo76QVXWy-299" value="- id: UUID" style="text;strokeColor=none;fillColor=none;align=left;verticalAlign=top;spacingLeft=4;spacingRight=4;overflow=hidden;rotatable=0;points=[[0,0.5],[1,0.5]];portConstraint=eastwest;container=0;fontStyle=0" vertex="1" parent="UleaZShrQOYpo76QVXWy-298">
          <mxGeometry y="29" width="173" height="26" as="geometry" />
        </mxCell>
        <mxCell id="UleaZShrQOYpo76QVXWy-300" value="- code : String" style="text;strokeColor=none;fillColor=none;align=left;verticalAlign=top;spacingLeft=4;spacingRight=4;overflow=hidden;rotatable=0;points=[[0,0.5],[1,0.5]];portConstraint=eastwest;container=0;fontStyle=0" vertex="1" parent="UleaZShrQOYpo76QVXWy-298">
          <mxGeometry y="55" width="173" height="26" as="geometry" />
        </mxCell>
        <mxCell id="UleaZShrQOYpo76QVXWy-301" value="- summary: String" style="text;strokeColor=none;fillColor=none;align=left;verticalAlign=top;spacingLeft=4;spacingRight=4;overflow=hidden;rotatable=0;points=[[0,0.5],[1,0.5]];portConstraint=eastwest;container=0;fontStyle=0" vertex="1" parent="UleaZShrQOYpo76QVXWy-298">
          <mxGeometry y="81" width="173" height="26" as="geometry" />
        </mxCell>
        <mxCell id="UleaZShrQOYpo76QVXWy-302" value="- description: String" style="text;strokeColor=none;fillColor=none;align=left;verticalAlign=top;spacingLeft=4;spacingRight=4;overflow=hidden;rotatable=0;points=[[0,0.5],[1,0.5]];portConstraint=eastwest;container=0;fontStyle=0" vertex="1" parent="UleaZShrQOYpo76QVXWy-298">
          <mxGeometry y="107" width="173" height="26" as="geometry" />
        </mxCell>
        <mxCell id="UleaZShrQOYpo76QVXWy-303" value="- number: Int" style="text;strokeColor=none;fillColor=none;align=left;verticalAlign=top;spacingLeft=4;spacingRight=4;overflow=hidden;rotatable=0;points=[[0,0.5],[1,0.5]];portConstraint=eastwest;container=0;fontStyle=0" vertex="1" parent="UleaZShrQOYpo76QVXWy-298">
          <mxGeometry y="133" width="173" height="26" as="geometry" />
        </mxCell>
        <mxCell id="UleaZShrQOYpo76QVXWy-304" value="- plannedStartDate: LocalDate" style="text;strokeColor=none;fillColor=none;align=left;verticalAlign=top;spacingLeft=4;spacingRight=4;overflow=hidden;rotatable=0;points=[[0,0.5],[1,0.5]];portConstraint=eastwest;container=0;fontStyle=0" vertex="1" parent="UleaZShrQOYpo76QVXWy-298">
          <mxGeometry y="159" width="173" height="26" as="geometry" />
        </mxCell>
        <mxCell id="UleaZShrQOYpo76QVXWy-305" value="- plannedEndDate : LocalDate" style="text;strokeColor=none;fillColor=none;align=left;verticalAlign=top;spacingLeft=4;spacingRight=4;overflow=hidden;rotatable=0;points=[[0,0.5],[1,0.5]];portConstraint=eastwest;container=0;fontStyle=0" vertex="1" parent="UleaZShrQOYpo76QVXWy-298">
          <mxGeometry y="185" width="173" height="26" as="geometry" />
        </mxCell>
        <mxCell id="UleaZShrQOYpo76QVXWy-306" value="- startDate: LocalDate" style="text;strokeColor=none;fillColor=none;align=left;verticalAlign=top;spacingLeft=4;spacingRight=4;overflow=hidden;rotatable=0;points=[[0,0.5],[1,0.5]];portConstraint=eastwest;container=0;fontStyle=0" vertex="1" parent="UleaZShrQOYpo76QVXWy-298">
          <mxGeometry y="211" width="173" height="26" as="geometry" />
        </mxCell>
        <mxCell id="UleaZShrQOYpo76QVXWy-307" value="- deliveryDate: LocalDate" style="text;strokeColor=none;fillColor=none;align=left;verticalAlign=top;spacingLeft=4;spacingRight=4;overflow=hidden;rotatable=0;points=[[0,0.5],[1,0.5]];portConstraint=eastwest;container=0;fontStyle=0" vertex="1" parent="UleaZShrQOYpo76QVXWy-298">
          <mxGeometry y="237" width="173" height="26" as="geometry" />
        </mxCell>
        <mxCell id="UleaZShrQOYpo76QVXWy-308" value="- budget: Double" style="text;strokeColor=none;fillColor=none;align=left;verticalAlign=top;spacingLeft=4;spacingRight=4;overflow=hidden;rotatable=0;points=[[0,0.5],[1,0.5]];portConstraint=eastwest;container=0;fontStyle=0" vertex="1" parent="UleaZShrQOYpo76QVXWy-298">
          <mxGeometry y="263" width="173" height="26" as="geometry" />
        </mxCell>
        <mxCell id="UleaZShrQOYpo76QVXWy-309" value="- averageCost: Double" style="text;strokeColor=none;fillColor=none;align=left;verticalAlign=top;spacingLeft=4;spacingRight=4;overflow=hidden;rotatable=0;points=[[0,0.5],[1,0.5]];portConstraint=eastwest;container=0;fontStyle=0" vertex="1" parent="UleaZShrQOYpo76QVXWy-298">
          <mxGeometry y="289" width="173" height="26" as="geometry" />
        </mxCell>
        <mxCell id="UleaZShrQOYpo76QVXWy-310" value="- averageProfitMargin: Float" style="text;strokeColor=none;fillColor=none;align=left;verticalAlign=top;spacingLeft=4;spacingRight=4;overflow=hidden;rotatable=0;points=[[0,0.5],[1,0.5]];portConstraint=eastwest;container=0;fontStyle=0" vertex="1" parent="UleaZShrQOYpo76QVXWy-298">
          <mxGeometry y="315" width="173" height="26" as="geometry" />
        </mxCell>
        <mxCell id="UleaZShrQOYpo76QVXWy-311" value="- order: Integer" style="text;strokeColor=none;fillColor=none;align=left;verticalAlign=top;spacingLeft=4;spacingRight=4;overflow=hidden;rotatable=0;points=[[0,0.5],[1,0.5]];portConstraint=eastwest;container=0;fontStyle=0" vertex="1" parent="UleaZShrQOYpo76QVXWy-298">
          <mxGeometry y="341" width="173" height="26" as="geometry" />
        </mxCell>
        <mxCell id="UleaZShrQOYpo76QVXWy-312" style="edgeStyle=orthogonalEdgeStyle;rounded=0;orthogonalLoop=1;jettySize=auto;html=1;dashed=1;endArrow=classic;endFill=1;startSize=5;endSize=5;strokeColor=#CC6600;" edge="1" parent="1" source="UleaZShrQOYpo76QVXWy-319" target="UleaZShrQOYpo76QVXWy-330">
          <mxGeometry relative="1" as="geometry">
            <Array as="points">
              <mxPoint x="740" y="1409" />
              <mxPoint x="740" y="1409" />
            </Array>
          </mxGeometry>
        </mxCell>
        <mxCell id="UleaZShrQOYpo76QVXWy-313" style="edgeStyle=orthogonalEdgeStyle;rounded=0;orthogonalLoop=1;jettySize=auto;html=1;endArrow=none;endFill=0;startSize=5;endSize=5;strokeColor=#CC6600;" edge="1" parent="1" source="UleaZShrQOYpo76QVXWy-319" target="UleaZShrQOYpo76QVXWy-258">
          <mxGeometry relative="1" as="geometry">
            <Array as="points">
              <mxPoint x="829" y="952" />
              <mxPoint x="541" y="952" />
            </Array>
            <mxPoint x="893.9999999999995" y="1244" as="sourcePoint" />
            <mxPoint x="459" y="908" as="targetPoint" />
          </mxGeometry>
        </mxCell>
        <mxCell id="UleaZShrQOYpo76QVXWy-314" value="*" style="edgeLabel;html=1;align=center;verticalAlign=middle;resizable=0;points=[];rotation=90;" vertex="1" connectable="0" parent="UleaZShrQOYpo76QVXWy-313">
          <mxGeometry x="-0.9596" y="1" relative="1" as="geometry">
            <mxPoint x="-1" y="7" as="offset" />
          </mxGeometry>
        </mxCell>
        <mxCell id="UleaZShrQOYpo76QVXWy-315" value="1" style="edgeLabel;html=1;align=center;verticalAlign=middle;resizable=0;points=[];" vertex="1" connectable="0" parent="UleaZShrQOYpo76QVXWy-313">
          <mxGeometry x="0.9131" y="-1" relative="1" as="geometry">
            <mxPoint x="-2" y="-18" as="offset" />
          </mxGeometry>
        </mxCell>
        <mxCell id="UleaZShrQOYpo76QVXWy-316" style="edgeStyle=orthogonalEdgeStyle;rounded=0;orthogonalLoop=1;jettySize=auto;html=1;endArrow=none;endFill=0;startSize=5;endSize=5;strokeColor=#CC6600;" edge="1" parent="1" source="UleaZShrQOYpo76QVXWy-319" target="UleaZShrQOYpo76QVXWy-431">
          <mxGeometry relative="1" as="geometry">
            <Array as="points">
              <mxPoint x="937" y="1280" />
            </Array>
          </mxGeometry>
        </mxCell>
        <mxCell id="UleaZShrQOYpo76QVXWy-317" value="*" style="edgeLabel;html=1;align=center;verticalAlign=middle;resizable=0;points=[];" vertex="1" connectable="0" parent="UleaZShrQOYpo76QVXWy-316">
          <mxGeometry x="-0.7088" relative="1" as="geometry">
            <mxPoint x="-12" y="10" as="offset" />
          </mxGeometry>
        </mxCell>
        <mxCell id="UleaZShrQOYpo76QVXWy-318" value="1" style="edgeLabel;html=1;align=center;verticalAlign=middle;resizable=0;points=[];" vertex="1" connectable="0" parent="UleaZShrQOYpo76QVXWy-316">
          <mxGeometry x="0.747" y="1" relative="1" as="geometry">
            <mxPoint y="-13" as="offset" />
          </mxGeometry>
        </mxCell>
        <mxCell id="UleaZShrQOYpo76QVXWy-319" value="Retrospective" style="swimlane;fontStyle=1;align=center;verticalAlign=middle;childLayout=stackLayout;horizontal=1;startSize=29;horizontalStack=0;resizeParent=1;resizeParentMax=0;resizeLast=0;collapsible=0;marginBottom=0;html=1;fontSize=12;labelPosition=center;verticalLabelPosition=middle;container=0;swimlaneLine=1;rounded=0;sketch=0;glass=0;strokeColor=#CC6600;" vertex="1" parent="1">
          <mxGeometry x="747" y="1236" width="173" height="185" as="geometry" />
        </mxCell>
        <mxCell id="UleaZShrQOYpo76QVXWy-320" value="- id: UUID" style="text;strokeColor=none;fillColor=none;align=left;verticalAlign=top;spacingLeft=4;spacingRight=4;overflow=hidden;rotatable=0;points=[[0,0.5],[1,0.5]];portConstraint=eastwest;container=0;fontStyle=0" vertex="1" parent="UleaZShrQOYpo76QVXWy-319">
          <mxGeometry y="29" width="173" height="26" as="geometry" />
        </mxCell>
        <mxCell id="UleaZShrQOYpo76QVXWy-321" value="- reporter: UUID" style="text;strokeColor=none;fillColor=none;align=left;verticalAlign=top;spacingLeft=4;spacingRight=4;overflow=hidden;rotatable=0;points=[[0,0.5],[1,0.5]];portConstraint=eastwest;container=0;fontStyle=0" vertex="1" parent="UleaZShrQOYpo76QVXWy-319">
          <mxGeometry y="55" width="173" height="26" as="geometry" />
        </mxCell>
        <mxCell id="UleaZShrQOYpo76QVXWy-322" value="- date : LocalDate" style="text;strokeColor=none;fillColor=none;align=left;verticalAlign=top;spacingLeft=4;spacingRight=4;overflow=hidden;rotatable=0;points=[[0,0.5],[1,0.5]];portConstraint=eastwest;container=0;fontStyle=0" vertex="1" parent="UleaZShrQOYpo76QVXWy-319">
          <mxGeometry y="81" width="173" height="26" as="geometry" />
        </mxCell>
        <mxCell id="UleaZShrQOYpo76QVXWy-323" value="- subject: String" style="text;strokeColor=none;fillColor=none;align=left;verticalAlign=top;spacingLeft=4;spacingRight=4;overflow=hidden;rotatable=0;points=[[0,0.5],[1,0.5]];portConstraint=eastwest;container=0;fontStyle=0" vertex="1" parent="UleaZShrQOYpo76QVXWy-319">
          <mxGeometry y="107" width="173" height="26" as="geometry" />
        </mxCell>
        <mxCell id="UleaZShrQOYpo76QVXWy-324" value="- proposition: String" style="text;strokeColor=none;fillColor=none;align=left;verticalAlign=top;spacingLeft=4;spacingRight=4;overflow=hidden;rotatable=0;points=[[0,0.5],[1,0.5]];portConstraint=eastwest;container=0;fontStyle=0" vertex="1" parent="UleaZShrQOYpo76QVXWy-319">
          <mxGeometry y="133" width="173" height="26" as="geometry" />
        </mxCell>
        <mxCell id="UleaZShrQOYpo76QVXWy-325" value="- limit: Float" style="text;strokeColor=none;fillColor=none;align=left;verticalAlign=top;spacingLeft=4;spacingRight=4;overflow=hidden;rotatable=0;points=[[0,0.5],[1,0.5]];portConstraint=eastwest;container=0;fontStyle=0" vertex="1" parent="UleaZShrQOYpo76QVXWy-319">
          <mxGeometry y="159" width="173" height="26" as="geometry" />
        </mxCell>
        <mxCell id="UleaZShrQOYpo76QVXWy-326" value="&lt;b&gt;&amp;lt;&amp;lt;enum&amp;gt;&amp;gt;&lt;/b&gt;&lt;br&gt;&lt;div style=&quot;text-align: left&quot;&gt;&lt;b&gt;RetrospectiveType&lt;/b&gt;&lt;br&gt;&lt;/div&gt;" style="swimlane;fontStyle=0;align=center;verticalAlign=middle;childLayout=stackLayout;horizontal=1;startSize=29;horizontalStack=0;resizeParent=1;resizeParentMax=0;resizeLast=0;collapsible=0;marginBottom=0;html=1;fontSize=12;labelPosition=center;verticalLabelPosition=middle;container=0;swimlaneLine=1;rounded=0;sketch=0;glass=0;strokeColor=#CC6600;" vertex="1" parent="1">
          <mxGeometry x="563" y="1494" width="150" height="81" as="geometry" />
        </mxCell>
        <mxCell id="UleaZShrQOYpo76QVXWy-327" value="IMPROVEMENT" style="text;strokeColor=none;fillColor=none;align=left;verticalAlign=top;spacingLeft=4;spacingRight=4;overflow=hidden;rotatable=0;points=[[0,0.5],[1,0.5]];portConstraint=eastwest;container=0;fontStyle=0" vertex="1" parent="UleaZShrQOYpo76QVXWy-326">
          <mxGeometry y="29" width="150" height="26" as="geometry" />
        </mxCell>
        <mxCell id="UleaZShrQOYpo76QVXWy-328" value="CAPITALIZATION" style="text;strokeColor=none;fillColor=none;align=left;verticalAlign=top;spacingLeft=4;spacingRight=4;overflow=hidden;rotatable=0;points=[[0,0.5],[1,0.5]];portConstraint=eastwest;container=0;fontStyle=0" vertex="1" parent="UleaZShrQOYpo76QVXWy-326">
          <mxGeometry y="55" width="150" height="26" as="geometry" />
        </mxCell>
        <mxCell id="UleaZShrQOYpo76QVXWy-329" style="edgeStyle=orthogonalEdgeStyle;rounded=0;orthogonalLoop=1;jettySize=auto;html=1;endArrow=classic;endFill=1;startSize=5;endSize=5;dashed=1;strokeColor=#CC6600;" edge="1" parent="1" source="UleaZShrQOYpo76QVXWy-319" target="UleaZShrQOYpo76QVXWy-326">
          <mxGeometry relative="1" as="geometry">
            <Array as="points">
              <mxPoint x="753" y="1515" />
            </Array>
          </mxGeometry>
        </mxCell>
        <mxCell id="UleaZShrQOYpo76QVXWy-330" value="&lt;b&gt;&amp;lt;&amp;lt;enum&amp;gt;&amp;gt;&lt;/b&gt;&lt;br&gt;&lt;div style=&quot;text-align: left&quot;&gt;&lt;b&gt;RetrospectiveStatus&lt;/b&gt;&lt;br&gt;&lt;/div&gt;" style="swimlane;fontStyle=0;align=center;verticalAlign=middle;childLayout=stackLayout;horizontal=1;startSize=29;horizontalStack=0;resizeParent=1;resizeParentMax=0;resizeLast=0;collapsible=0;marginBottom=0;html=1;fontSize=12;labelPosition=center;verticalLabelPosition=middle;container=0;swimlaneLine=1;rounded=0;sketch=0;glass=0;strokeColor=#CC6600;" vertex="1" parent="1">
          <mxGeometry x="563" y="1341" width="150" height="133" as="geometry" />
        </mxCell>
        <mxCell id="UleaZShrQOYpo76QVXWy-331" value="OPEN" style="text;strokeColor=none;fillColor=none;align=left;verticalAlign=top;spacingLeft=4;spacingRight=4;overflow=hidden;rotatable=0;points=[[0,0.5],[1,0.5]];portConstraint=eastwest;container=0;fontStyle=0" vertex="1" parent="UleaZShrQOYpo76QVXWy-330">
          <mxGeometry y="29" width="150" height="26" as="geometry" />
        </mxCell>
        <mxCell id="UleaZShrQOYpo76QVXWy-332" value="PROCESSING" style="text;strokeColor=none;fillColor=none;align=left;verticalAlign=top;spacingLeft=4;spacingRight=4;overflow=hidden;rotatable=0;points=[[0,0.5],[1,0.5]];portConstraint=eastwest;container=0;fontStyle=0" vertex="1" parent="UleaZShrQOYpo76QVXWy-330">
          <mxGeometry y="55" width="150" height="26" as="geometry" />
        </mxCell>
        <mxCell id="UleaZShrQOYpo76QVXWy-333" value="CLOSED" style="text;strokeColor=none;fillColor=none;align=left;verticalAlign=top;spacingLeft=4;spacingRight=4;overflow=hidden;rotatable=0;points=[[0,0.5],[1,0.5]];portConstraint=eastwest;container=0;fontStyle=0" vertex="1" parent="UleaZShrQOYpo76QVXWy-330">
          <mxGeometry y="81" width="150" height="26" as="geometry" />
        </mxCell>
        <mxCell id="UleaZShrQOYpo76QVXWy-334" value="REJECTED" style="text;strokeColor=none;fillColor=none;align=left;verticalAlign=top;spacingLeft=4;spacingRight=4;overflow=hidden;rotatable=0;points=[[0,0.5],[1,0.5]];portConstraint=eastwest;container=0;fontStyle=0" vertex="1" parent="UleaZShrQOYpo76QVXWy-330">
          <mxGeometry y="107" width="150" height="26" as="geometry" />
        </mxCell>
        <mxCell id="UleaZShrQOYpo76QVXWy-335" style="edgeStyle=orthogonalEdgeStyle;rounded=0;orthogonalLoop=1;jettySize=auto;html=1;endArrow=none;endFill=0;startSize=5;endSize=5;strokeColor=#CC6600;" edge="1" parent="1" source="UleaZShrQOYpo76QVXWy-339" target="UleaZShrQOYpo76QVXWy-258">
          <mxGeometry relative="1" as="geometry">
            <Array as="points">
              <mxPoint x="1044" y="931" />
              <mxPoint x="573" y="931" />
            </Array>
            <mxPoint x="1114.492753623188" y="1234" as="sourcePoint" />
            <mxPoint x="471" y="902" as="targetPoint" />
          </mxGeometry>
        </mxCell>
        <mxCell id="UleaZShrQOYpo76QVXWy-336" value="*" style="edgeLabel;html=1;align=center;verticalAlign=middle;resizable=0;points=[];rotation=90;" vertex="1" connectable="0" parent="UleaZShrQOYpo76QVXWy-335">
          <mxGeometry x="-0.9807" y="1" relative="1" as="geometry">
            <mxPoint x="-1" y="2" as="offset" />
          </mxGeometry>
        </mxCell>
        <mxCell id="UleaZShrQOYpo76QVXWy-337" value="1" style="edgeLabel;html=1;align=center;verticalAlign=middle;resizable=0;points=[];" vertex="1" connectable="0" parent="UleaZShrQOYpo76QVXWy-335">
          <mxGeometry x="0.9786" y="1" relative="1" as="geometry">
            <mxPoint as="offset" />
          </mxGeometry>
        </mxCell>
        <mxCell id="UleaZShrQOYpo76QVXWy-338" style="edgeStyle=orthogonalEdgeStyle;rounded=0;orthogonalLoop=1;jettySize=auto;html=1;endArrow=classic;endFill=1;startSize=5;endSize=5;dashed=1;strokeColor=#CC6600;" edge="1" parent="1" source="UleaZShrQOYpo76QVXWy-339" target="UleaZShrQOYpo76QVXWy-347">
          <mxGeometry relative="1" as="geometry">
            <mxPoint x="1124" y="1559" as="targetPoint" />
            <Array as="points">
              <mxPoint x="1030" y="1501" />
            </Array>
          </mxGeometry>
        </mxCell>
        <mxCell id="UleaZShrQOYpo76QVXWy-339" value="ResourcePlanning" style="swimlane;fontStyle=1;align=center;verticalAlign=middle;childLayout=stackLayout;horizontal=1;startSize=29;horizontalStack=0;resizeParent=1;resizeParentMax=0;resizeLast=0;collapsible=0;marginBottom=0;html=1;fontSize=12;labelPosition=center;verticalLabelPosition=middle;container=0;swimlaneLine=1;rounded=0;sketch=0;glass=0;strokeColor=#CC6600;" vertex="1" parent="1">
          <mxGeometry x="961" y="1236" width="173" height="211" as="geometry" />
        </mxCell>
        <mxCell id="UleaZShrQOYpo76QVXWy-340" value="- id: UUID" style="text;strokeColor=none;fillColor=none;align=left;verticalAlign=top;spacingLeft=4;spacingRight=4;overflow=hidden;rotatable=0;points=[[0,0.5],[1,0.5]];portConstraint=eastwest;container=0;fontStyle=0" vertex="1" parent="UleaZShrQOYpo76QVXWy-339">
          <mxGeometry y="29" width="173" height="26" as="geometry" />
        </mxCell>
        <mxCell id="UleaZShrQOYpo76QVXWy-341" value="- summary: String" style="text;strokeColor=none;fillColor=none;align=left;verticalAlign=top;spacingLeft=4;spacingRight=4;overflow=hidden;rotatable=0;points=[[0,0.5],[1,0.5]];portConstraint=eastwest;container=0;fontStyle=0" vertex="1" parent="UleaZShrQOYpo76QVXWy-339">
          <mxGeometry y="55" width="173" height="26" as="geometry" />
        </mxCell>
        <mxCell id="UleaZShrQOYpo76QVXWy-342" value="- employee: UUID" style="text;strokeColor=none;fillColor=none;align=left;verticalAlign=top;spacingLeft=4;spacingRight=4;overflow=hidden;rotatable=0;points=[[0,0.5],[1,0.5]];portConstraint=eastwest;container=0;fontStyle=0" vertex="1" parent="UleaZShrQOYpo76QVXWy-339">
          <mxGeometry y="81" width="173" height="26" as="geometry" />
        </mxCell>
        <mxCell id="UleaZShrQOYpo76QVXWy-343" value="- fromDate: LocalDate" style="text;strokeColor=none;fillColor=none;align=left;verticalAlign=top;spacingLeft=4;spacingRight=4;overflow=hidden;rotatable=0;points=[[0,0.5],[1,0.5]];portConstraint=eastwest;container=0;fontStyle=0" vertex="1" parent="UleaZShrQOYpo76QVXWy-339">
          <mxGeometry y="107" width="173" height="26" as="geometry" />
        </mxCell>
        <mxCell id="UleaZShrQOYpo76QVXWy-344" value="- toDate: LocalDate" style="text;strokeColor=none;fillColor=none;align=left;verticalAlign=top;spacingLeft=4;spacingRight=4;overflow=hidden;rotatable=0;points=[[0,0.5],[1,0.5]];portConstraint=eastwest;container=0;fontStyle=0" vertex="1" parent="UleaZShrQOYpo76QVXWy-339">
          <mxGeometry y="133" width="173" height="26" as="geometry" />
        </mxCell>
        <mxCell id="UleaZShrQOYpo76QVXWy-345" value="- regime: Float" style="text;strokeColor=none;fillColor=none;align=left;verticalAlign=top;spacingLeft=4;spacingRight=4;overflow=hidden;rotatable=0;points=[[0,0.5],[1,0.5]];portConstraint=eastwest;container=0;fontStyle=0" vertex="1" parent="UleaZShrQOYpo76QVXWy-339">
          <mxGeometry y="159" width="173" height="26" as="geometry" />
        </mxCell>
        <mxCell id="UleaZShrQOYpo76QVXWy-346" value="- notes: String" style="text;strokeColor=none;fillColor=none;align=left;verticalAlign=top;spacingLeft=4;spacingRight=4;overflow=hidden;rotatable=0;points=[[0,0.5],[1,0.5]];portConstraint=eastwest;container=0;fontStyle=0" vertex="1" parent="UleaZShrQOYpo76QVXWy-339">
          <mxGeometry y="185" width="173" height="26" as="geometry" />
        </mxCell>
        <mxCell id="UleaZShrQOYpo76QVXWy-347" value="&lt;b&gt;&amp;lt;&amp;lt;enum&amp;gt;&amp;gt;&lt;/b&gt;&lt;br&gt;&lt;div style=&quot;text-align: left&quot;&gt;&lt;b&gt;ResourcePlanningType&lt;/b&gt;&lt;br&gt;&lt;/div&gt;" style="swimlane;fontStyle=0;align=center;verticalAlign=middle;childLayout=stackLayout;horizontal=1;startSize=29;horizontalStack=0;resizeParent=1;resizeParentMax=0;resizeLast=0;collapsible=0;marginBottom=0;html=1;fontSize=12;labelPosition=center;verticalLabelPosition=middle;container=0;swimlaneLine=1;rounded=0;sketch=0;glass=0;strokeColor=#CC6600;" vertex="1" parent="1">
          <mxGeometry x="770" y="1439" width="150" height="159" as="geometry" />
        </mxCell>
        <mxCell id="UleaZShrQOYpo76QVXWy-348" value="DELIVERY" style="text;strokeColor=none;fillColor=none;align=left;verticalAlign=top;spacingLeft=4;spacingRight=4;overflow=hidden;rotatable=0;points=[[0,0.5],[1,0.5]];portConstraint=eastwest;container=0;fontStyle=0" vertex="1" parent="UleaZShrQOYpo76QVXWy-347">
          <mxGeometry y="29" width="150" height="26" as="geometry" />
        </mxCell>
        <mxCell id="UleaZShrQOYpo76QVXWy-349" value="PRESALES" style="text;strokeColor=none;fillColor=none;align=left;verticalAlign=top;spacingLeft=4;spacingRight=4;overflow=hidden;rotatable=0;points=[[0,0.5],[1,0.5]];portConstraint=eastwest;container=0;fontStyle=0" vertex="1" parent="UleaZShrQOYpo76QVXWy-347">
          <mxGeometry y="55" width="150" height="26" as="geometry" />
        </mxCell>
        <mxCell id="UleaZShrQOYpo76QVXWy-350" value="TRAINING" style="text;strokeColor=none;fillColor=none;align=left;verticalAlign=top;spacingLeft=4;spacingRight=4;overflow=hidden;rotatable=0;points=[[0,0.5],[1,0.5]];portConstraint=eastwest;container=0;fontStyle=0" vertex="1" parent="UleaZShrQOYpo76QVXWy-347">
          <mxGeometry y="81" width="150" height="26" as="geometry" />
        </mxCell>
        <mxCell id="UleaZShrQOYpo76QVXWy-351" value="LEAVE" style="text;strokeColor=none;fillColor=none;align=left;verticalAlign=top;spacingLeft=4;spacingRight=4;overflow=hidden;rotatable=0;points=[[0,0.5],[1,0.5]];portConstraint=eastwest;container=0;fontStyle=0" vertex="1" parent="UleaZShrQOYpo76QVXWy-347">
          <mxGeometry y="107" width="150" height="26" as="geometry" />
        </mxCell>
        <mxCell id="UleaZShrQOYpo76QVXWy-352" value="OTHER" style="text;strokeColor=none;fillColor=none;align=left;verticalAlign=top;spacingLeft=4;spacingRight=4;overflow=hidden;rotatable=0;points=[[0,0.5],[1,0.5]];portConstraint=eastwest;container=0;fontStyle=0" vertex="1" parent="UleaZShrQOYpo76QVXWy-347">
          <mxGeometry y="133" width="150" height="26" as="geometry" />
        </mxCell>
        <mxCell id="UleaZShrQOYpo76QVXWy-353" style="edgeStyle=orthogonalEdgeStyle;rounded=0;orthogonalLoop=1;jettySize=auto;html=1;dashed=1;endArrow=classic;endFill=1;startSize=5;endSize=5;strokeColor=#CC6600;" edge="1" parent="1" source="UleaZShrQOYpo76QVXWy-298" target="UleaZShrQOYpo76QVXWy-249">
          <mxGeometry relative="1" as="geometry">
            <Array as="points">
              <mxPoint x="299" y="1517" />
              <mxPoint x="299" y="1517" />
            </Array>
          </mxGeometry>
        </mxCell>
        <mxCell id="UleaZShrQOYpo76QVXWy-354" value="&lt;b&gt;&amp;lt;&amp;lt;enum&amp;gt;&amp;gt;&lt;/b&gt;&lt;br&gt;&lt;div style=&quot;text-align: left&quot;&gt;DealType&lt;br&gt;&lt;/div&gt;" style="swimlane;fontStyle=0;align=center;verticalAlign=middle;childLayout=stackLayout;horizontal=1;startSize=29;horizontalStack=0;resizeParent=1;resizeParentMax=0;resizeLast=0;collapsible=0;marginBottom=0;html=1;fontSize=12;labelPosition=center;verticalLabelPosition=middle;container=0;swimlaneLine=1;rounded=0;sketch=0;glass=0;strokeColor=#CC6600;" vertex="1" parent="1">
          <mxGeometry x="935" y="726" width="150" height="133" as="geometry" />
        </mxCell>
        <mxCell id="UleaZShrQOYpo76QVXWy-355" value="TIME_AND_MATERIAL" style="text;strokeColor=none;fillColor=none;align=left;verticalAlign=top;spacingLeft=4;spacingRight=4;overflow=hidden;rotatable=0;points=[[0,0.5],[1,0.5]];portConstraint=eastwest;container=0;fontStyle=0" vertex="1" parent="UleaZShrQOYpo76QVXWy-354">
          <mxGeometry y="29" width="150" height="26" as="geometry" />
        </mxCell>
        <mxCell id="UleaZShrQOYpo76QVXWy-356" value="FIXED_PRICE" style="text;strokeColor=none;fillColor=none;align=left;verticalAlign=top;spacingLeft=4;spacingRight=4;overflow=hidden;rotatable=0;points=[[0,0.5],[1,0.5]];portConstraint=eastwest;container=0;fontStyle=0" vertex="1" parent="UleaZShrQOYpo76QVXWy-354">
          <mxGeometry y="55" width="150" height="26" as="geometry" />
        </mxCell>
        <mxCell id="UleaZShrQOYpo76QVXWy-357" value="SUPPORT_PROGRAM" style="text;strokeColor=none;fillColor=none;align=left;verticalAlign=top;spacingLeft=4;spacingRight=4;overflow=hidden;rotatable=0;points=[[0,0.5],[1,0.5]];portConstraint=eastwest;container=0;fontStyle=0" vertex="1" parent="UleaZShrQOYpo76QVXWy-354">
          <mxGeometry y="81" width="150" height="26" as="geometry" />
        </mxCell>
        <mxCell id="UleaZShrQOYpo76QVXWy-358" value="LICENSE" style="text;strokeColor=none;fillColor=none;align=left;verticalAlign=top;spacingLeft=4;spacingRight=4;overflow=hidden;rotatable=0;points=[[0,0.5],[1,0.5]];portConstraint=eastwest;container=0;fontStyle=0" vertex="1" parent="UleaZShrQOYpo76QVXWy-354">
          <mxGeometry y="107" width="150" height="26" as="geometry" />
        </mxCell>
        <mxCell id="UleaZShrQOYpo76QVXWy-359" style="edgeStyle=orthogonalEdgeStyle;rounded=0;orthogonalLoop=1;jettySize=auto;html=1;dashed=1;endArrow=classic;endFill=1;startSize=5;endSize=5;strokeColor=#CC6600;" edge="1" parent="1" source="UleaZShrQOYpo76QVXWy-258" target="UleaZShrQOYpo76QVXWy-354">
          <mxGeometry relative="1" as="geometry">
            <Array as="points">
              <mxPoint x="850" y="849" />
              <mxPoint x="850" y="849" />
            </Array>
          </mxGeometry>
        </mxCell>
        <mxCell id="UleaZShrQOYpo76QVXWy-360" style="edgeStyle=orthogonalEdgeStyle;rounded=0;orthogonalLoop=1;jettySize=auto;html=1;endArrow=none;endFill=0;startSize=5;endSize=5;strokeColor=#CC6600;" edge="1" parent="1" source="UleaZShrQOYpo76QVXWy-366" target="UleaZShrQOYpo76QVXWy-281">
          <mxGeometry relative="1" as="geometry">
            <Array as="points">
              <mxPoint x="536" y="1726" />
            </Array>
          </mxGeometry>
        </mxCell>
        <mxCell id="UleaZShrQOYpo76QVXWy-361" value="*" style="edgeLabel;html=1;align=center;verticalAlign=middle;resizable=0;points=[];" vertex="1" connectable="0" parent="UleaZShrQOYpo76QVXWy-360">
          <mxGeometry x="-0.9505" y="1" relative="1" as="geometry">
            <mxPoint x="-10" y="3" as="offset" />
          </mxGeometry>
        </mxCell>
        <mxCell id="UleaZShrQOYpo76QVXWy-362" value="1" style="edgeLabel;html=1;align=center;verticalAlign=middle;resizable=0;points=[];" vertex="1" connectable="0" parent="UleaZShrQOYpo76QVXWy-360">
          <mxGeometry x="0.9729" relative="1" as="geometry">
            <mxPoint x="-1" as="offset" />
          </mxGeometry>
        </mxCell>
        <mxCell id="UleaZShrQOYpo76QVXWy-363" style="edgeStyle=orthogonalEdgeStyle;rounded=0;orthogonalLoop=1;jettySize=auto;html=1;startArrow=none;startFill=0;endArrow=none;endFill=0;startSize=5;endSize=5;strokeColor=#CC6600;" edge="1" parent="1" source="UleaZShrQOYpo76QVXWy-366" target="UleaZShrQOYpo76QVXWy-440">
          <mxGeometry relative="1" as="geometry">
            <Array as="points">
              <mxPoint x="-100" y="1716" />
            </Array>
          </mxGeometry>
        </mxCell>
        <mxCell id="UleaZShrQOYpo76QVXWy-364" value="1" style="edgeLabel;html=1;align=center;verticalAlign=middle;resizable=0;points=[];" vertex="1" connectable="0" parent="UleaZShrQOYpo76QVXWy-363">
          <mxGeometry x="-0.9708" y="-2" relative="1" as="geometry">
            <mxPoint x="8" y="2" as="offset" />
          </mxGeometry>
        </mxCell>
        <mxCell id="UleaZShrQOYpo76QVXWy-365" value="1" style="edgeLabel;html=1;align=center;verticalAlign=middle;resizable=0;points=[];" vertex="1" connectable="0" parent="UleaZShrQOYpo76QVXWy-363">
          <mxGeometry x="0.9711" relative="1" as="geometry">
            <mxPoint x="-1" y="-9" as="offset" />
          </mxGeometry>
        </mxCell>
        <mxCell id="UleaZShrQOYpo76QVXWy-366" value="&lt;b&gt;Task&lt;br&gt;&lt;/b&gt;" style="swimlane;fontStyle=0;align=center;verticalAlign=middle;childLayout=stackLayout;horizontal=1;startSize=29;horizontalStack=0;resizeParent=1;resizeParentMax=0;resizeLast=0;collapsible=0;marginBottom=0;html=1;fontSize=12;labelPosition=center;verticalLabelPosition=middle;container=0;strokeColor=#CC6600;swimlaneLine=1;rounded=0;shadow=0;glass=0;sketch=0;perimeterSpacing=0;" vertex="1" parent="1">
          <mxGeometry x="317" y="1670" width="173" height="341" as="geometry" />
        </mxCell>
        <mxCell id="UleaZShrQOYpo76QVXWy-367" value="- id: UUID" style="text;strokeColor=none;fillColor=none;align=left;verticalAlign=top;spacingLeft=4;spacingRight=4;overflow=hidden;rotatable=0;points=[[0,0.5],[1,0.5]];portConstraint=eastwest;container=0;fontStyle=0" vertex="1" parent="UleaZShrQOYpo76QVXWy-366">
          <mxGeometry y="29" width="173" height="26" as="geometry" />
        </mxCell>
        <mxCell id="UleaZShrQOYpo76QVXWy-368" value="- code : String" style="text;strokeColor=none;fillColor=none;align=left;verticalAlign=top;spacingLeft=4;spacingRight=4;overflow=hidden;rotatable=0;points=[[0,0.5],[1,0.5]];portConstraint=eastwest;container=0;fontStyle=0" vertex="1" parent="UleaZShrQOYpo76QVXWy-366">
          <mxGeometry y="55" width="173" height="26" as="geometry" />
        </mxCell>
        <mxCell id="UleaZShrQOYpo76QVXWy-369" value="- summary: String" style="text;strokeColor=none;fillColor=none;align=left;verticalAlign=top;spacingLeft=4;spacingRight=4;overflow=hidden;rotatable=0;points=[[0,0.5],[1,0.5]];portConstraint=eastwest;container=0;fontStyle=0" vertex="1" parent="UleaZShrQOYpo76QVXWy-366">
          <mxGeometry y="81" width="173" height="26" as="geometry" />
        </mxCell>
        <mxCell id="UleaZShrQOYpo76QVXWy-370" value="- description: String" style="text;strokeColor=none;fillColor=none;align=left;verticalAlign=top;spacingLeft=4;spacingRight=4;overflow=hidden;rotatable=0;points=[[0,0.5],[1,0.5]];portConstraint=eastwest;container=0;fontStyle=0" vertex="1" parent="UleaZShrQOYpo76QVXWy-366">
          <mxGeometry y="107" width="173" height="26" as="geometry" />
        </mxCell>
        <mxCell id="UleaZShrQOYpo76QVXWy-371" value="- toDate: LocalDate" style="text;strokeColor=none;fillColor=none;align=left;verticalAlign=top;spacingLeft=4;spacingRight=4;overflow=hidden;rotatable=0;points=[[0,0.5],[1,0.5]];portConstraint=eastwest;container=0;fontStyle=0" vertex="1" parent="UleaZShrQOYpo76QVXWy-366">
          <mxGeometry y="133" width="173" height="26" as="geometry" />
        </mxCell>
        <mxCell id="UleaZShrQOYpo76QVXWy-372" value="- regime: Float" style="text;strokeColor=none;fillColor=none;align=left;verticalAlign=top;spacingLeft=4;spacingRight=4;overflow=hidden;rotatable=0;points=[[0,0.5],[1,0.5]];portConstraint=eastwest;container=0;fontStyle=0" vertex="1" parent="UleaZShrQOYpo76QVXWy-366">
          <mxGeometry y="159" width="173" height="26" as="geometry" />
        </mxCell>
        <mxCell id="UleaZShrQOYpo76QVXWy-373" value="- dueDate: LocalDate" style="text;strokeColor=none;fillColor=none;align=left;verticalAlign=top;spacingLeft=4;spacingRight=4;overflow=hidden;rotatable=0;points=[[0,0.5],[1,0.5]];portConstraint=eastwest;container=0;fontStyle=0" vertex="1" parent="UleaZShrQOYpo76QVXWy-366">
          <mxGeometry y="185" width="173" height="26" as="geometry" />
        </mxCell>
        <mxCell id="UleaZShrQOYpo76QVXWy-374" value="- deliveryDate: LocalDate" style="text;strokeColor=none;fillColor=none;align=left;verticalAlign=top;spacingLeft=4;spacingRight=4;overflow=hidden;rotatable=0;points=[[0,0.5],[1,0.5]];portConstraint=eastwest;container=0;fontStyle=0" vertex="1" parent="UleaZShrQOYpo76QVXWy-366">
          <mxGeometry y="211" width="173" height="26" as="geometry" />
        </mxCell>
        <mxCell id="UleaZShrQOYpo76QVXWy-375" value="- assignee: UUID" style="text;strokeColor=none;fillColor=none;align=left;verticalAlign=top;spacingLeft=4;spacingRight=4;overflow=hidden;rotatable=0;points=[[0,0.5],[1,0.5]];portConstraint=eastwest;container=0;fontStyle=0" vertex="1" parent="UleaZShrQOYpo76QVXWy-366">
          <mxGeometry y="237" width="173" height="26" as="geometry" />
        </mxCell>
        <mxCell id="UleaZShrQOYpo76QVXWy-376" value="- estimation: Float" style="text;strokeColor=none;fillColor=none;align=left;verticalAlign=top;spacingLeft=4;spacingRight=4;overflow=hidden;rotatable=0;points=[[0,0.5],[1,0.5]];portConstraint=eastwest;container=0;fontStyle=0" vertex="1" parent="UleaZShrQOYpo76QVXWy-366">
          <mxGeometry y="263" width="173" height="26" as="geometry" />
        </mxCell>
        <mxCell id="UleaZShrQOYpo76QVXWy-377" value="- notes: String" style="text;strokeColor=none;fillColor=none;align=left;verticalAlign=top;spacingLeft=4;spacingRight=4;overflow=hidden;rotatable=0;points=[[0,0.5],[1,0.5]];portConstraint=eastwest;container=0;fontStyle=0" vertex="1" parent="UleaZShrQOYpo76QVXWy-366">
          <mxGeometry y="289" width="173" height="26" as="geometry" />
        </mxCell>
        <mxCell id="UleaZShrQOYpo76QVXWy-378" value="- order: Int" style="text;strokeColor=none;fillColor=none;align=left;verticalAlign=top;spacingLeft=4;spacingRight=4;overflow=hidden;rotatable=0;points=[[0,0.5],[1,0.5]];portConstraint=eastwest;container=0;fontStyle=0" vertex="1" parent="UleaZShrQOYpo76QVXWy-366">
          <mxGeometry y="315" width="173" height="26" as="geometry" />
        </mxCell>
        <mxCell id="UleaZShrQOYpo76QVXWy-379" value="&lt;b&gt;&amp;lt;&amp;lt;enum&amp;gt;&amp;gt;&lt;/b&gt;&lt;br&gt;&lt;div style=&quot;text-align: left&quot;&gt;&lt;b&gt;TaskPriority&lt;/b&gt;&lt;br&gt;&lt;/div&gt;" style="swimlane;fontStyle=0;align=center;verticalAlign=middle;childLayout=stackLayout;horizontal=1;startSize=29;horizontalStack=0;resizeParent=1;resizeParentMax=0;resizeLast=0;collapsible=0;marginBottom=0;html=1;fontSize=12;labelPosition=center;verticalLabelPosition=middle;container=0;swimlaneLine=1;rounded=0;sketch=0;glass=0;strokeColor=#CC6600;" vertex="1" parent="1">
          <mxGeometry x="100" y="1775" width="150" height="107" as="geometry" />
        </mxCell>
        <mxCell id="UleaZShrQOYpo76QVXWy-380" value="LOW" style="text;strokeColor=none;fillColor=none;align=left;verticalAlign=top;spacingLeft=4;spacingRight=4;overflow=hidden;rotatable=0;points=[[0,0.5],[1,0.5]];portConstraint=eastwest;container=0;fontStyle=0" vertex="1" parent="UleaZShrQOYpo76QVXWy-379">
          <mxGeometry y="29" width="150" height="26" as="geometry" />
        </mxCell>
        <mxCell id="UleaZShrQOYpo76QVXWy-381" value="MEDIUM" style="text;strokeColor=none;fillColor=none;align=left;verticalAlign=top;spacingLeft=4;spacingRight=4;overflow=hidden;rotatable=0;points=[[0,0.5],[1,0.5]];portConstraint=eastwest;container=0;fontStyle=0" vertex="1" parent="UleaZShrQOYpo76QVXWy-379">
          <mxGeometry y="55" width="150" height="26" as="geometry" />
        </mxCell>
        <mxCell id="UleaZShrQOYpo76QVXWy-382" value="CRITICAL" style="text;strokeColor=none;fillColor=none;align=left;verticalAlign=top;spacingLeft=4;spacingRight=4;overflow=hidden;rotatable=0;points=[[0,0.5],[1,0.5]];portConstraint=eastwest;container=0;fontStyle=0" vertex="1" parent="UleaZShrQOYpo76QVXWy-379">
          <mxGeometry y="81" width="150" height="26" as="geometry" />
        </mxCell>
        <mxCell id="UleaZShrQOYpo76QVXWy-383" value="&lt;b&gt;&amp;lt;&amp;lt;enum&amp;gt;&amp;gt;&lt;/b&gt;&lt;br&gt;&lt;div style=&quot;text-align: left&quot;&gt;&lt;b&gt;DeliveryStatus&lt;/b&gt;&lt;br&gt;&lt;/div&gt;" style="swimlane;fontStyle=0;align=center;verticalAlign=middle;childLayout=stackLayout;horizontal=1;startSize=29;horizontalStack=0;resizeParent=1;resizeParentMax=0;resizeLast=0;collapsible=0;marginBottom=0;html=1;fontSize=12;labelPosition=center;verticalLabelPosition=middle;container=0;swimlaneLine=1;rounded=0;sketch=0;glass=0;strokeColor=#CC6600;" vertex="1" parent="1">
          <mxGeometry x="100" y="1906" width="150" height="159" as="geometry" />
        </mxCell>
        <mxCell id="UleaZShrQOYpo76QVXWy-384" value="PLANNED" style="text;strokeColor=none;fillColor=none;align=left;verticalAlign=top;spacingLeft=4;spacingRight=4;overflow=hidden;rotatable=0;points=[[0,0.5],[1,0.5]];portConstraint=eastwest;container=0;fontStyle=0" vertex="1" parent="UleaZShrQOYpo76QVXWy-383">
          <mxGeometry y="29" width="150" height="26" as="geometry" />
        </mxCell>
        <mxCell id="UleaZShrQOYpo76QVXWy-385" value="IN_PROGRESS" style="text;strokeColor=none;fillColor=none;align=left;verticalAlign=top;spacingLeft=4;spacingRight=4;overflow=hidden;rotatable=0;points=[[0,0.5],[1,0.5]];portConstraint=eastwest;container=0;fontStyle=0" vertex="1" parent="UleaZShrQOYpo76QVXWy-383">
          <mxGeometry y="55" width="150" height="26" as="geometry" />
        </mxCell>
        <mxCell id="UleaZShrQOYpo76QVXWy-386" value="DELIVERED" style="text;strokeColor=none;fillColor=none;align=left;verticalAlign=top;spacingLeft=4;spacingRight=4;overflow=hidden;rotatable=0;points=[[0,0.5],[1,0.5]];portConstraint=eastwest;container=0;fontStyle=0" vertex="1" parent="UleaZShrQOYpo76QVXWy-383">
          <mxGeometry y="81" width="150" height="26" as="geometry" />
        </mxCell>
        <mxCell id="UleaZShrQOYpo76QVXWy-387" value="BLOCKED" style="text;strokeColor=none;fillColor=none;align=left;verticalAlign=top;spacingLeft=4;spacingRight=4;overflow=hidden;rotatable=0;points=[[0,0.5],[1,0.5]];portConstraint=eastwest;container=0;fontStyle=0" vertex="1" parent="UleaZShrQOYpo76QVXWy-383">
          <mxGeometry y="107" width="150" height="26" as="geometry" />
        </mxCell>
        <mxCell id="UleaZShrQOYpo76QVXWy-388" value="CANCELLED" style="text;strokeColor=none;fillColor=none;align=left;verticalAlign=top;spacingLeft=4;spacingRight=4;overflow=hidden;rotatable=0;points=[[0,0.5],[1,0.5]];portConstraint=eastwest;container=0;fontStyle=0" vertex="1" parent="UleaZShrQOYpo76QVXWy-383">
          <mxGeometry y="133" width="150" height="26" as="geometry" />
        </mxCell>
        <mxCell id="UleaZShrQOYpo76QVXWy-389" style="edgeStyle=orthogonalEdgeStyle;rounded=0;orthogonalLoop=1;jettySize=auto;html=1;endArrow=classic;endFill=1;startSize=5;endSize=5;dashed=1;strokeColor=#CC6600;" edge="1" parent="1" source="UleaZShrQOYpo76QVXWy-366" target="UleaZShrQOYpo76QVXWy-379">
          <mxGeometry relative="1" as="geometry">
            <Array as="points">
              <mxPoint x="359" y="1827" />
              <mxPoint x="359" y="1827" />
            </Array>
          </mxGeometry>
        </mxCell>
        <mxCell id="UleaZShrQOYpo76QVXWy-390" style="edgeStyle=orthogonalEdgeStyle;rounded=0;orthogonalLoop=1;jettySize=auto;html=1;endArrow=classic;endFill=1;startSize=5;endSize=5;dashed=1;strokeColor=#CC6600;" edge="1" parent="1" source="UleaZShrQOYpo76QVXWy-366" target="UleaZShrQOYpo76QVXWy-383">
          <mxGeometry relative="1" as="geometry">
            <Array as="points">
              <mxPoint x="292" y="1955" />
              <mxPoint x="292" y="1955" />
            </Array>
          </mxGeometry>
        </mxCell>
        <mxCell id="UleaZShrQOYpo76QVXWy-391" style="edgeStyle=orthogonalEdgeStyle;rounded=0;orthogonalLoop=1;jettySize=auto;html=1;endArrow=none;endFill=0;startSize=5;endSize=5;strokeColor=#CC6600;" edge="1" parent="1" source="UleaZShrQOYpo76QVXWy-394" target="UleaZShrQOYpo76QVXWy-258">
          <mxGeometry relative="1" as="geometry">
            <Array as="points">
              <mxPoint x="1177" y="898" />
            </Array>
          </mxGeometry>
        </mxCell>
        <mxCell id="UleaZShrQOYpo76QVXWy-392" value="1" style="edgeLabel;html=1;align=center;verticalAlign=middle;resizable=0;points=[];" vertex="1" connectable="0" parent="UleaZShrQOYpo76QVXWy-391">
          <mxGeometry x="0.9625" y="1" relative="1" as="geometry">
            <mxPoint x="-6" y="-1" as="offset" />
          </mxGeometry>
        </mxCell>
        <mxCell id="UleaZShrQOYpo76QVXWy-393" value="*" style="edgeLabel;html=1;align=center;verticalAlign=middle;resizable=0;points=[];rotation=90;" vertex="1" connectable="0" parent="UleaZShrQOYpo76QVXWy-391">
          <mxGeometry x="-0.9877" relative="1" as="geometry">
            <mxPoint x="-2" as="offset" />
          </mxGeometry>
        </mxCell>
        <mxCell id="UleaZShrQOYpo76QVXWy-394" value="ReportLog" style="swimlane;fontStyle=1;align=center;verticalAlign=middle;childLayout=stackLayout;horizontal=1;startSize=29;horizontalStack=0;resizeParent=1;resizeParentMax=0;resizeLast=0;collapsible=0;marginBottom=0;html=1;fontSize=12;labelPosition=center;verticalLabelPosition=middle;container=0;swimlaneLine=1;rounded=0;sketch=0;glass=0;strokeColor=#CC6600;" vertex="1" parent="1">
          <mxGeometry x="1076" y="940" width="190" height="211" as="geometry" />
        </mxCell>
        <mxCell id="UleaZShrQOYpo76QVXWy-395" value="- id: UUID" style="text;strokeColor=none;fillColor=none;align=left;verticalAlign=top;spacingLeft=4;spacingRight=4;overflow=hidden;rotatable=0;points=[[0,0.5],[1,0.5]];portConstraint=eastwest;container=0;fontStyle=0" vertex="1" parent="UleaZShrQOYpo76QVXWy-394">
          <mxGeometry y="29" width="190" height="26" as="geometry" />
        </mxCell>
        <mxCell id="UleaZShrQOYpo76QVXWy-396" value="- date: LocalDate" style="text;strokeColor=none;fillColor=none;align=left;verticalAlign=top;spacingLeft=4;spacingRight=4;overflow=hidden;rotatable=0;points=[[0,0.5],[1,0.5]];portConstraint=eastwest;container=0;fontStyle=0" vertex="1" parent="UleaZShrQOYpo76QVXWy-394">
          <mxGeometry y="55" width="190" height="26" as="geometry" />
        </mxCell>
        <mxCell id="UleaZShrQOYpo76QVXWy-397" value="- emitter: UUID" style="text;strokeColor=none;fillColor=none;align=left;verticalAlign=top;spacingLeft=4;spacingRight=4;overflow=hidden;rotatable=0;points=[[0,0.5],[1,0.5]];portConstraint=eastwest;container=0;fontStyle=0" vertex="1" parent="UleaZShrQOYpo76QVXWy-394">
          <mxGeometry y="81" width="190" height="26" as="geometry" />
        </mxCell>
        <mxCell id="UleaZShrQOYpo76QVXWy-398" value="- subject: String" style="text;strokeColor=none;fillColor=none;align=left;verticalAlign=top;spacingLeft=4;spacingRight=4;overflow=hidden;rotatable=0;points=[[0,0.5],[1,0.5]];portConstraint=eastwest;container=0;fontStyle=0" vertex="1" parent="UleaZShrQOYpo76QVXWy-394">
          <mxGeometry y="107" width="190" height="26" as="geometry" />
        </mxCell>
        <mxCell id="UleaZShrQOYpo76QVXWy-399" value="- report: String" style="text;strokeColor=none;fillColor=none;align=left;verticalAlign=top;spacingLeft=4;spacingRight=4;overflow=hidden;rotatable=0;points=[[0,0.5],[1,0.5]];portConstraint=eastwest;container=0;fontStyle=0" vertex="1" parent="UleaZShrQOYpo76QVXWy-394">
          <mxGeometry y="133" width="190" height="26" as="geometry" />
        </mxCell>
        <mxCell id="UleaZShrQOYpo76QVXWy-400" value="- progress: Float" style="text;strokeColor=none;fillColor=none;align=left;verticalAlign=top;spacingLeft=4;spacingRight=4;overflow=hidden;rotatable=0;points=[[0,0.5],[1,0.5]];portConstraint=eastwest;container=0;fontStyle=0" vertex="1" parent="UleaZShrQOYpo76QVXWy-394">
          <mxGeometry y="159" width="190" height="26" as="geometry" />
        </mxCell>
        <mxCell id="UleaZShrQOYpo76QVXWy-401" value="- plannedDeliveryDate: LocalDate" style="text;strokeColor=none;fillColor=none;align=left;verticalAlign=top;spacingLeft=4;spacingRight=4;overflow=hidden;rotatable=0;points=[[0,0.5],[1,0.5]];portConstraint=eastwest;container=0;fontStyle=0" vertex="1" parent="UleaZShrQOYpo76QVXWy-394">
          <mxGeometry y="185" width="190" height="26" as="geometry" />
        </mxCell>
        <mxCell id="UleaZShrQOYpo76QVXWy-402" style="edgeStyle=orthogonalEdgeStyle;rounded=0;orthogonalLoop=1;jettySize=auto;html=1;endArrow=none;endFill=0;startSize=5;endSize=5;strokeColor=#CC6600;" edge="1" parent="1" source="UleaZShrQOYpo76QVXWy-405" target="UleaZShrQOYpo76QVXWy-394">
          <mxGeometry relative="1" as="geometry">
            <Array as="points">
              <mxPoint x="1216" y="1173" />
              <mxPoint x="1216" y="1173" />
            </Array>
          </mxGeometry>
        </mxCell>
        <mxCell id="UleaZShrQOYpo76QVXWy-403" value="*" style="edgeLabel;html=1;align=center;verticalAlign=middle;resizable=0;points=[];rotation=90;" vertex="1" connectable="0" parent="UleaZShrQOYpo76QVXWy-402">
          <mxGeometry x="-0.8259" relative="1" as="geometry">
            <mxPoint x="-2" y="3" as="offset" />
          </mxGeometry>
        </mxCell>
        <mxCell id="UleaZShrQOYpo76QVXWy-404" value="*" style="edgeLabel;html=1;align=center;verticalAlign=middle;resizable=0;points=[];rotation=90;" vertex="1" connectable="0" parent="UleaZShrQOYpo76QVXWy-402">
          <mxGeometry x="0.8907" y="-1" relative="1" as="geometry">
            <mxPoint x="-3" y="-1" as="offset" />
          </mxGeometry>
        </mxCell>
        <mxCell id="UleaZShrQOYpo76QVXWy-405" value="&lt;b&gt;DeliveryStakeholderIds&lt;/b&gt;" style="swimlane;fontStyle=0;align=center;verticalAlign=middle;childLayout=stackLayout;horizontal=1;startSize=29;horizontalStack=0;resizeParent=1;resizeParentMax=0;resizeLast=0;collapsible=0;marginBottom=0;html=1;fontSize=12;labelPosition=center;verticalLabelPosition=middle;container=0;swimlaneLine=1;rounded=0;sketch=0;glass=0;strokeColor=#CC6600;" vertex="1" parent="1">
          <mxGeometry x="1153" y="1236" width="150" height="81" as="geometry" />
        </mxCell>
        <mxCell id="UleaZShrQOYpo76QVXWy-406" value="- id: UUID" style="text;strokeColor=none;fillColor=none;align=left;verticalAlign=top;spacingLeft=4;spacingRight=4;overflow=hidden;rotatable=0;points=[[0,0.5],[1,0.5]];portConstraint=eastwest;container=0;fontStyle=0" vertex="1" parent="UleaZShrQOYpo76QVXWy-405">
          <mxGeometry y="29" width="150" height="26" as="geometry" />
        </mxCell>
        <mxCell id="UleaZShrQOYpo76QVXWy-407" value="- stakeholder: UUID" style="text;strokeColor=none;fillColor=none;align=left;verticalAlign=top;spacingLeft=4;spacingRight=4;overflow=hidden;rotatable=0;points=[[0,0.5],[1,0.5]];portConstraint=eastwest;container=0;fontStyle=0" vertex="1" parent="UleaZShrQOYpo76QVXWy-405">
          <mxGeometry y="55" width="150" height="26" as="geometry" />
        </mxCell>
        <mxCell id="UleaZShrQOYpo76QVXWy-408" style="edgeStyle=orthogonalEdgeStyle;rounded=0;orthogonalLoop=1;jettySize=auto;html=1;endArrow=none;endFill=0;startSize=5;endSize=5;strokeColor=#CC6600;" edge="1" parent="1" source="UleaZShrQOYpo76QVXWy-258" target="UleaZShrQOYpo76QVXWy-405">
          <mxGeometry relative="1" as="geometry">
            <Array as="points">
              <mxPoint x="1291" y="872" />
            </Array>
          </mxGeometry>
        </mxCell>
        <mxCell id="UleaZShrQOYpo76QVXWy-409" value="*" style="edgeLabel;html=1;align=center;verticalAlign=middle;resizable=0;points=[];rotation=90;" vertex="1" connectable="0" parent="UleaZShrQOYpo76QVXWy-408">
          <mxGeometry x="0.9911" relative="1" as="geometry">
            <mxPoint x="-2" y="1" as="offset" />
          </mxGeometry>
        </mxCell>
        <mxCell id="UleaZShrQOYpo76QVXWy-410" value="*" style="edgeLabel;html=1;align=center;verticalAlign=middle;resizable=0;points=[];rotation=0;" vertex="1" connectable="0" parent="UleaZShrQOYpo76QVXWy-408">
          <mxGeometry x="-0.9926" y="1" relative="1" as="geometry">
            <mxPoint x="1" y="4" as="offset" />
          </mxGeometry>
        </mxCell>
        <mxCell id="UleaZShrQOYpo76QVXWy-411" style="edgeStyle=orthogonalEdgeStyle;rounded=0;orthogonalLoop=1;jettySize=auto;html=1;endArrow=none;endFill=0;startSize=5;endSize=5;strokeColor=#CC6600;" edge="1" parent="1" source="UleaZShrQOYpo76QVXWy-420" target="UleaZShrQOYpo76QVXWy-366">
          <mxGeometry relative="1" as="geometry">
            <Array as="points">
              <mxPoint x="1476" y="1841" />
            </Array>
          </mxGeometry>
        </mxCell>
        <mxCell id="UleaZShrQOYpo76QVXWy-412" value="*" style="edgeLabel;html=1;align=center;verticalAlign=middle;resizable=0;points=[];rotation=90;" vertex="1" connectable="0" parent="UleaZShrQOYpo76QVXWy-411">
          <mxGeometry x="-0.8201" y="3" relative="1" as="geometry">
            <mxPoint x="-5" y="-149" as="offset" />
          </mxGeometry>
        </mxCell>
        <mxCell id="UleaZShrQOYpo76QVXWy-413" value="*" style="edgeLabel;html=1;align=center;verticalAlign=middle;resizable=0;points=[];" vertex="1" connectable="0" parent="UleaZShrQOYpo76QVXWy-411">
          <mxGeometry x="0.8051" y="1" relative="1" as="geometry">
            <mxPoint x="-159" y="1" as="offset" />
          </mxGeometry>
        </mxCell>
        <mxCell id="UleaZShrQOYpo76QVXWy-414" style="edgeStyle=orthogonalEdgeStyle;rounded=0;orthogonalLoop=1;jettySize=auto;html=1;endArrow=none;endFill=0;startSize=5;endSize=5;strokeColor=#CC6600;" edge="1" parent="1" source="UleaZShrQOYpo76QVXWy-420" target="UleaZShrQOYpo76QVXWy-298">
          <mxGeometry relative="1" as="geometry">
            <Array as="points">
              <mxPoint x="1417" y="1634" />
              <mxPoint x="441" y="1634" />
            </Array>
          </mxGeometry>
        </mxCell>
        <mxCell id="UleaZShrQOYpo76QVXWy-415" value="*" style="edgeLabel;html=1;align=center;verticalAlign=middle;resizable=0;points=[];rotation=90;" vertex="1" connectable="0" parent="UleaZShrQOYpo76QVXWy-414">
          <mxGeometry x="-0.9489" relative="1" as="geometry">
            <mxPoint x="-2" y="-34" as="offset" />
          </mxGeometry>
        </mxCell>
        <mxCell id="UleaZShrQOYpo76QVXWy-416" value="1" style="edgeLabel;html=1;align=center;verticalAlign=middle;resizable=0;points=[];" vertex="1" connectable="0" parent="UleaZShrQOYpo76QVXWy-414">
          <mxGeometry x="0.9638" y="-1" relative="1" as="geometry">
            <mxPoint x="-2" y="-23" as="offset" />
          </mxGeometry>
        </mxCell>
        <mxCell id="UleaZShrQOYpo76QVXWy-417" style="edgeStyle=orthogonalEdgeStyle;rounded=0;orthogonalLoop=1;jettySize=auto;html=1;endArrow=none;endFill=0;startSize=5;endSize=5;strokeColor=#CC6600;" edge="1" parent="1" source="UleaZShrQOYpo76QVXWy-420" target="UleaZShrQOYpo76QVXWy-258">
          <mxGeometry relative="1" as="geometry">
            <Array as="points">
              <mxPoint x="1417" y="697" />
              <mxPoint x="553" y="697" />
            </Array>
          </mxGeometry>
        </mxCell>
        <mxCell id="UleaZShrQOYpo76QVXWy-418" value="1" style="edgeLabel;html=1;align=center;verticalAlign=middle;resizable=0;points=[];" vertex="1" connectable="0" parent="UleaZShrQOYpo76QVXWy-417">
          <mxGeometry x="0.9969" relative="1" as="geometry">
            <mxPoint x="-1" y="-6" as="offset" />
          </mxGeometry>
        </mxCell>
        <mxCell id="UleaZShrQOYpo76QVXWy-419" value="*" style="edgeLabel;html=1;align=center;verticalAlign=middle;resizable=0;points=[];rotation=90;" vertex="1" connectable="0" parent="UleaZShrQOYpo76QVXWy-417">
          <mxGeometry x="-0.9903" y="-1" relative="1" as="geometry">
            <mxPoint x="-3" as="offset" />
          </mxGeometry>
        </mxCell>
        <mxCell id="UleaZShrQOYpo76QVXWy-420" value="DeliveryNote" style="swimlane;fontStyle=1;align=center;verticalAlign=middle;childLayout=stackLayout;horizontal=1;startSize=29;horizontalStack=0;resizeParent=1;resizeParentMax=0;resizeLast=0;collapsible=0;marginBottom=0;html=1;fontSize=12;labelPosition=center;verticalLabelPosition=middle;container=0;swimlaneLine=1;rounded=0;sketch=0;glass=0;strokeColor=#CC6600;" vertex="1" parent="1">
          <mxGeometry x="1322" y="940" width="190" height="211" as="geometry" />
        </mxCell>
        <mxCell id="UleaZShrQOYpo76QVXWy-421" value="- id: UUID" style="text;strokeColor=none;fillColor=none;align=left;verticalAlign=top;spacingLeft=4;spacingRight=4;overflow=hidden;rotatable=0;points=[[0,0.5],[1,0.5]];portConstraint=eastwest;container=0;fontStyle=0" vertex="1" parent="UleaZShrQOYpo76QVXWy-420">
          <mxGeometry y="29" width="190" height="26" as="geometry" />
        </mxCell>
        <mxCell id="UleaZShrQOYpo76QVXWy-422" value="- date: LocalDate" style="text;strokeColor=none;fillColor=none;align=left;verticalAlign=top;spacingLeft=4;spacingRight=4;overflow=hidden;rotatable=0;points=[[0,0.5],[1,0.5]];portConstraint=eastwest;container=0;fontStyle=0" vertex="1" parent="UleaZShrQOYpo76QVXWy-420">
          <mxGeometry y="55" width="190" height="26" as="geometry" />
        </mxCell>
        <mxCell id="UleaZShrQOYpo76QVXWy-423" value="- emitter: UUID" style="text;strokeColor=none;fillColor=none;align=left;verticalAlign=top;spacingLeft=4;spacingRight=4;overflow=hidden;rotatable=0;points=[[0,0.5],[1,0.5]];portConstraint=eastwest;container=0;fontStyle=0" vertex="1" parent="UleaZShrQOYpo76QVXWy-420">
          <mxGeometry y="81" width="190" height="26" as="geometry" />
        </mxCell>
        <mxCell id="UleaZShrQOYpo76QVXWy-424" value="- subject: String" style="text;strokeColor=none;fillColor=none;align=left;verticalAlign=top;spacingLeft=4;spacingRight=4;overflow=hidden;rotatable=0;points=[[0,0.5],[1,0.5]];portConstraint=eastwest;container=0;fontStyle=0" vertex="1" parent="UleaZShrQOYpo76QVXWy-420">
          <mxGeometry y="107" width="190" height="26" as="geometry" />
        </mxCell>
        <mxCell id="UleaZShrQOYpo76QVXWy-425" value="- deliveryNote: String" style="text;strokeColor=none;fillColor=none;align=left;verticalAlign=top;spacingLeft=4;spacingRight=4;overflow=hidden;rotatable=0;points=[[0,0.5],[1,0.5]];portConstraint=eastwest;container=0;fontStyle=0" vertex="1" parent="UleaZShrQOYpo76QVXWy-420">
          <mxGeometry y="133" width="190" height="26" as="geometry" />
        </mxCell>
        <mxCell id="UleaZShrQOYpo76QVXWy-426" value="- progress: Float" style="text;strokeColor=none;fillColor=none;align=left;verticalAlign=top;spacingLeft=4;spacingRight=4;overflow=hidden;rotatable=0;points=[[0,0.5],[1,0.5]];portConstraint=eastwest;container=0;fontStyle=0" vertex="1" parent="UleaZShrQOYpo76QVXWy-420">
          <mxGeometry y="159" width="190" height="26" as="geometry" />
        </mxCell>
        <mxCell id="UleaZShrQOYpo76QVXWy-427" value="- plannedDeliveryDate: LocalDate" style="text;strokeColor=none;fillColor=none;align=left;verticalAlign=top;spacingLeft=4;spacingRight=4;overflow=hidden;rotatable=0;points=[[0,0.5],[1,0.5]];portConstraint=eastwest;container=0;fontStyle=0" vertex="1" parent="UleaZShrQOYpo76QVXWy-420">
          <mxGeometry y="185" width="190" height="26" as="geometry" />
        </mxCell>
        <mxCell id="UleaZShrQOYpo76QVXWy-428" style="edgeStyle=orthogonalEdgeStyle;rounded=0;orthogonalLoop=1;jettySize=auto;html=1;endArrow=none;endFill=0;startSize=5;endSize=5;strokeColor=#CC6600;" edge="1" parent="1" source="UleaZShrQOYpo76QVXWy-420" target="UleaZShrQOYpo76QVXWy-405">
          <mxGeometry relative="1" as="geometry">
            <Array as="points">
              <mxPoint x="1349" y="1291" />
            </Array>
          </mxGeometry>
        </mxCell>
        <mxCell id="UleaZShrQOYpo76QVXWy-429" value="*" style="edgeLabel;html=1;align=center;verticalAlign=middle;resizable=0;points=[];rotation=90;" vertex="1" connectable="0" parent="UleaZShrQOYpo76QVXWy-428">
          <mxGeometry x="-0.9636" y="-1" relative="1" as="geometry">
            <mxPoint x="-2" y="1" as="offset" />
          </mxGeometry>
        </mxCell>
        <mxCell id="UleaZShrQOYpo76QVXWy-430" value="*" style="edgeLabel;html=1;align=center;verticalAlign=middle;resizable=0;points=[];rotation=0;" vertex="1" connectable="0" parent="UleaZShrQOYpo76QVXWy-428">
          <mxGeometry x="0.9769" relative="1" as="geometry">
            <mxPoint x="2" y="2" as="offset" />
          </mxGeometry>
        </mxCell>
        <mxCell id="UleaZShrQOYpo76QVXWy-431" value="RetrospectiveCategory" style="swimlane;fontStyle=1;align=center;verticalAlign=middle;childLayout=stackLayout;horizontal=1;startSize=29;horizontalStack=0;resizeParent=1;resizeParentMax=0;resizeLast=0;collapsible=0;marginBottom=0;html=1;fontSize=12;labelPosition=center;verticalLabelPosition=middle;container=0;swimlaneLine=1;rounded=0;sketch=0;glass=0;strokeColor=#CC6600;" vertex="1" parent="1">
          <mxGeometry x="854" y="1003" width="166" height="107" as="geometry" />
        </mxCell>
        <mxCell id="UleaZShrQOYpo76QVXWy-432" value="- id: UUID" style="text;strokeColor=none;fillColor=none;align=left;verticalAlign=top;spacingLeft=4;spacingRight=4;overflow=hidden;rotatable=0;points=[[0,0.5],[1,0.5]];portConstraint=eastwest;container=0;fontStyle=0" vertex="1" parent="UleaZShrQOYpo76QVXWy-431">
          <mxGeometry y="29" width="166" height="26" as="geometry" />
        </mxCell>
        <mxCell id="UleaZShrQOYpo76QVXWy-433" value="- name: String" style="text;strokeColor=none;fillColor=none;align=left;verticalAlign=top;spacingLeft=4;spacingRight=4;overflow=hidden;rotatable=0;points=[[0,0.5],[1,0.5]];portConstraint=eastwest;container=0;fontStyle=0" vertex="1" parent="UleaZShrQOYpo76QVXWy-431">
          <mxGeometry y="55" width="166" height="26" as="geometry" />
        </mxCell>
        <mxCell id="UleaZShrQOYpo76QVXWy-434" value="- description: String" style="text;strokeColor=none;fillColor=none;align=left;verticalAlign=top;spacingLeft=4;spacingRight=4;overflow=hidden;rotatable=0;points=[[0,0.5],[1,0.5]];portConstraint=eastwest;container=0;fontStyle=0" vertex="1" parent="UleaZShrQOYpo76QVXWy-431">
          <mxGeometry y="81" width="166" height="26" as="geometry" />
        </mxCell>
        <mxCell id="UleaZShrQOYpo76QVXWy-435" value="&lt;b&gt;&amp;lt;&amp;lt;enum&amp;gt;&amp;gt;&lt;/b&gt;&lt;br&gt;&lt;div style=&quot;text-align: left&quot;&gt;SubDealPriority&lt;br&gt;&lt;/div&gt;" style="swimlane;fontStyle=0;align=center;verticalAlign=middle;childLayout=stackLayout;horizontal=1;startSize=29;horizontalStack=0;resizeParent=1;resizeParentMax=0;resizeLast=0;collapsible=0;marginBottom=0;html=1;fontSize=12;labelPosition=center;verticalLabelPosition=middle;container=0;swimlaneLine=1;rounded=0;sketch=0;glass=0;strokeColor=#CC6600;" vertex="1" parent="1">
          <mxGeometry x="718" y="726" width="150" height="107" as="geometry" />
        </mxCell>
        <mxCell id="UleaZShrQOYpo76QVXWy-436" value="CRITIQUE" style="text;strokeColor=none;fillColor=none;align=left;verticalAlign=top;spacingLeft=4;spacingRight=4;overflow=hidden;rotatable=0;points=[[0,0.5],[1,0.5]];portConstraint=eastwest;container=0;fontStyle=0" vertex="1" parent="UleaZShrQOYpo76QVXWy-435">
          <mxGeometry y="29" width="150" height="26" as="geometry" />
        </mxCell>
        <mxCell id="UleaZShrQOYpo76QVXWy-437" value="MAJEURE" style="text;strokeColor=none;fillColor=none;align=left;verticalAlign=top;spacingLeft=4;spacingRight=4;overflow=hidden;rotatable=0;points=[[0,0.5],[1,0.5]];portConstraint=eastwest;container=0;fontStyle=0" vertex="1" parent="UleaZShrQOYpo76QVXWy-435">
          <mxGeometry y="55" width="150" height="26" as="geometry" />
        </mxCell>
        <mxCell id="UleaZShrQOYpo76QVXWy-438" value="MINEURE" style="text;strokeColor=none;fillColor=none;align=left;verticalAlign=top;spacingLeft=4;spacingRight=4;overflow=hidden;rotatable=0;points=[[0,0.5],[1,0.5]];portConstraint=eastwest;container=0;fontStyle=0" vertex="1" parent="UleaZShrQOYpo76QVXWy-435">
          <mxGeometry y="81" width="150" height="26" as="geometry" />
        </mxCell>
        <mxCell id="UleaZShrQOYpo76QVXWy-439" style="edgeStyle=orthogonalEdgeStyle;rounded=0;orthogonalLoop=1;jettySize=auto;html=1;endArrow=classic;endFill=1;startSize=5;endSize=5;dashed=1;strokeColor=#CC6600;" edge="1" parent="1" source="UleaZShrQOYpo76QVXWy-258" target="UleaZShrQOYpo76QVXWy-435">
          <mxGeometry relative="1" as="geometry">
            <Array as="points">
              <mxPoint x="695" y="784" />
              <mxPoint x="695" y="784" />
            </Array>
          </mxGeometry>
        </mxCell>
        <mxCell id="UleaZShrQOYpo76QVXWy-440" value="Blocage" style="swimlane;fontStyle=1;align=center;verticalAlign=middle;childLayout=stackLayout;horizontal=1;startSize=29;horizontalStack=0;resizeParent=1;resizeParentMax=0;resizeLast=0;collapsible=0;marginBottom=0;html=1;fontSize=12;labelPosition=center;verticalLabelPosition=middle;container=0;swimlaneLine=1;rounded=0;sketch=0;glass=0;strokeColor=#CC6600;" vertex="1" parent="1">
          <mxGeometry x="-155" y="710" width="178" height="237" as="geometry" />
        </mxCell>
        <mxCell id="UleaZShrQOYpo76QVXWy-441" value="- id: UUID" style="text;strokeColor=none;fillColor=none;align=left;verticalAlign=top;spacingLeft=4;spacingRight=4;overflow=hidden;rotatable=0;points=[[0,0.5],[1,0.5]];portConstraint=eastwest;container=0;fontStyle=0" vertex="1" parent="UleaZShrQOYpo76QVXWy-440">
          <mxGeometry y="29" width="178" height="26" as="geometry" />
        </mxCell>
        <mxCell id="UleaZShrQOYpo76QVXWy-442" value="- rapporteur: UUID" style="text;strokeColor=none;fillColor=none;align=left;verticalAlign=top;spacingLeft=4;spacingRight=4;overflow=hidden;rotatable=0;points=[[0,0.5],[1,0.5]];portConstraint=eastwest;container=0;fontStyle=0" vertex="1" parent="UleaZShrQOYpo76QVXWy-440">
          <mxGeometry y="55" width="178" height="26" as="geometry" />
        </mxCell>
        <mxCell id="UleaZShrQOYpo76QVXWy-443" value="- reason: String" style="text;strokeColor=none;fillColor=none;align=left;verticalAlign=top;spacingLeft=4;spacingRight=4;overflow=hidden;rotatable=0;points=[[0,0.5],[1,0.5]];portConstraint=eastwest;container=0;fontStyle=0" vertex="1" parent="UleaZShrQOYpo76QVXWy-440">
          <mxGeometry y="81" width="178" height="26" as="geometry" />
        </mxCell>
        <mxCell id="UleaZShrQOYpo76QVXWy-444" value="- impact: Int" style="text;strokeColor=none;fillColor=none;align=left;verticalAlign=top;spacingLeft=4;spacingRight=4;overflow=hidden;rotatable=0;points=[[0,0.5],[1,0.5]];portConstraint=eastwest;container=0;fontStyle=0" vertex="1" parent="UleaZShrQOYpo76QVXWy-440">
          <mxGeometry y="107" width="178" height="26" as="geometry" />
        </mxCell>
        <mxCell id="UleaZShrQOYpo76QVXWy-445" value="- actionResolutionAction: String" style="text;strokeColor=none;fillColor=none;align=left;verticalAlign=top;spacingLeft=4;spacingRight=4;overflow=hidden;rotatable=0;points=[[0,0.5],[1,0.5]];portConstraint=eastwest;container=0;fontStyle=0" vertex="1" parent="UleaZShrQOYpo76QVXWy-440">
          <mxGeometry y="133" width="178" height="26" as="geometry" />
        </mxCell>
        <mxCell id="UleaZShrQOYpo76QVXWy-446" value="- employeeAffectee: UUID" style="text;strokeColor=none;fillColor=none;align=left;verticalAlign=top;spacingLeft=4;spacingRight=4;overflow=hidden;rotatable=0;points=[[0,0.5],[1,0.5]];portConstraint=eastwest;container=0;fontStyle=0" vertex="1" parent="UleaZShrQOYpo76QVXWy-440">
          <mxGeometry y="159" width="178" height="26" as="geometry" />
        </mxCell>
        <mxCell id="UleaZShrQOYpo76QVXWy-447" value="- date: LocalDate" style="text;strokeColor=none;fillColor=none;align=left;verticalAlign=top;spacingLeft=4;spacingRight=4;overflow=hidden;rotatable=0;points=[[0,0.5],[1,0.5]];portConstraint=eastwest;container=0;fontStyle=0" vertex="1" parent="UleaZShrQOYpo76QVXWy-440">
          <mxGeometry y="185" width="178" height="26" as="geometry" />
        </mxCell>
        <mxCell id="UleaZShrQOYpo76QVXWy-448" value="- dateResolution: LocalDate" style="text;strokeColor=none;fillColor=none;align=left;verticalAlign=top;spacingLeft=4;spacingRight=4;overflow=hidden;rotatable=0;points=[[0,0.5],[1,0.5]];portConstraint=eastwest;container=0;fontStyle=0" vertex="1" parent="UleaZShrQOYpo76QVXWy-440">
          <mxGeometry y="211" width="178" height="26" as="geometry" />
        </mxCell>
        <mxCell id="UleaZShrQOYpo76QVXWy-449" style="edgeStyle=orthogonalEdgeStyle;rounded=0;orthogonalLoop=1;jettySize=auto;html=1;startArrow=none;startFill=0;endArrow=none;endFill=0;startSize=5;endSize=5;strokeColor=#CC6600;" edge="1" parent="1" source="UleaZShrQOYpo76QVXWy-298" target="UleaZShrQOYpo76QVXWy-440">
          <mxGeometry relative="1" as="geometry">
            <Array as="points">
              <mxPoint x="-36" y="1401" />
            </Array>
          </mxGeometry>
        </mxCell>
        <mxCell id="UleaZShrQOYpo76QVXWy-450" value="*" style="edgeLabel;html=1;align=center;verticalAlign=middle;resizable=0;points=[];rotation=90;" vertex="1" connectable="0" parent="UleaZShrQOYpo76QVXWy-449">
          <mxGeometry x="0.9533" relative="1" as="geometry">
            <mxPoint x="-2" y="-15" as="offset" />
          </mxGeometry>
        </mxCell>
        <mxCell id="UleaZShrQOYpo76QVXWy-451" value="1" style="edgeLabel;html=1;align=center;verticalAlign=middle;resizable=0;points=[];" vertex="1" connectable="0" parent="UleaZShrQOYpo76QVXWy-449">
          <mxGeometry x="-0.9572" y="-1" relative="1" as="geometry">
            <mxPoint as="offset" />
          </mxGeometry>
        </mxCell>
        <mxCell id="UleaZShrQOYpo76QVXWy-452" value="" style="endArrow=diamondThin;endFill=1;endSize=24;html=1;rounded=0;strokeColor=#CC6600;" edge="1" parent="1" source="UleaZShrQOYpo76QVXWy-298">
          <mxGeometry width="160" relative="1" as="geometry">
            <mxPoint x="405.89" y="1616" as="sourcePoint" />
            <mxPoint x="405.8899999999999" y="1670" as="targetPoint" />
          </mxGeometry>
        </mxCell>
        <mxCell id="UleaZShrQOYpo76QVXWy-453" value="1" style="edgeLabel;html=1;align=center;verticalAlign=middle;resizable=0;points=[];" vertex="1" connectable="0" parent="UleaZShrQOYpo76QVXWy-452">
          <mxGeometry x="-0.714" y="-1" relative="1" as="geometry">
            <mxPoint y="-2" as="offset" />
          </mxGeometry>
        </mxCell>
        <mxCell id="UleaZShrQOYpo76QVXWy-454" value="*" style="edgeLabel;html=1;align=center;verticalAlign=middle;resizable=0;points=[];rotation=89;" vertex="1" connectable="0" parent="UleaZShrQOYpo76QVXWy-452">
          <mxGeometry x="-0.1225" relative="1" as="geometry">
            <mxPoint x="-2" y="6" as="offset" />
          </mxGeometry>
        </mxCell>
      </root>
    </mxGraphModel>
  </diagram>
</mxfile>
